<svg width="126" height="126" viewBox="0 0 126 126" fill="none" xmlns="http://www.w3.org/2000/svg">
<path d="M71.5265 55.5483L71.88 55.1947L91.5498 74.8647C91.55 74.865 91.5503 74.8652 91.5505 74.8655C93.4103 76.7156 94.8252 78.9642 95.6883 81.4414C96.5514 83.9186 96.8402 86.5595 96.5329 89.1646C96.4376 90.0214 96.101 90.8335 95.5621 91.5063C95.0231 92.1794 94.304 92.6855 93.4885 92.9657C93.488 92.9659 93.4875 92.966 93.4871 92.9662L93.3248 92.4933C92.8892 92.6457 92.4311 92.7237 91.9696 92.7242L71.5265 55.5483ZM71.5265 55.5483L71.88 55.1947L66.3755 49.6902V29.9438V29.9432C66.3723 27.1098 65.2453 24.3934 63.2419 22.3899C61.2384 20.3864 58.522 19.2594 55.6886 19.2561H55.6881H53.4893C53.063 19.2561 52.6541 19.4255 52.3527 19.7269L52.3527 19.7269C52.0512 20.0284 51.8819 20.4372 51.8819 20.8635V44.9284L36.304 29.3503C36.3039 29.3503 36.3039 29.3503 36.3039 29.3503C36.1546 29.201 35.9775 29.0825 35.7824 29.0017C35.5874 28.9209 35.3784 28.8793 35.1672 28.8793C34.9561 28.8793 34.7471 28.9209 34.552 29.0017C34.357 29.0825 34.1798 29.201 34.0306 29.3502C34.0305 29.3503 34.0305 29.3503 34.0305 29.3503L32.4759 30.9049L32.4755 30.9053C30.4743 32.911 29.3505 35.6287 29.3505 38.462C29.3505 41.2953 30.4743 44.0129 32.4755 46.0187L32.4759 46.0191L50.345 63.8882C50.345 63.8882 50.3451 63.8882 50.3451 63.8883C50.8847 64.4281 51.48 64.9088 52.1209 65.3224L52.1209 92.1121C52.1209 92.1124 52.1209 92.1126 52.1209 92.1129C52.1142 94.7362 52.7038 97.3267 53.8452 99.6887C54.9866 102.051 56.6499 104.122 58.7095 105.747C59.3842 106.282 60.1959 106.616 61.0517 106.711C61.9077 106.806 62.7731 106.657 63.5485 106.282C64.324 105.908 64.9781 105.322 65.4358 104.592C65.8935 103.863 66.1363 103.019 66.1363 102.158V69.272L88.7414 91.877C88.7418 91.8774 88.7423 91.8779 88.7427 91.8783M71.5265 55.5483L88.7427 91.8783M88.7427 91.8783L88.7429 91.8785L89.0965 91.525L88.7427 91.8783ZM51.8998 49.4927L51.8998 49.4927L35.1672 32.7602L34.7496 33.1777C33.3501 34.5803 32.5642 36.4808 32.5642 38.4621C32.5642 40.4434 33.3501 42.3438 34.7494 43.7463C34.7495 43.7464 34.7495 43.7465 34.7496 43.7465L52.6184 61.6153C54.0198 63.0166 55.9205 63.8038 57.9023 63.8038C59.8841 63.8038 61.7848 63.0166 63.1862 61.6153L68.47 56.3313L60.8602 48.7216L51.8998 49.4927ZM51.8998 49.4927C52.2012 49.7941 52.61 49.9634 53.0362 49.9635C53.4625 49.9635 53.8713 49.7943 54.1728 49.493L54.1729 49.4929M51.8998 49.4927L54.1729 49.4929M54.1729 49.4929L54.9445 48.7215L54.9682 48.6978M54.1729 49.4929L54.9682 48.6978M54.9682 48.6978C55.751 47.9294 56.8044 47.4984 57.9021 47.4984C59.011 47.4984 60.0746 47.9382 60.8598 48.7212L54.9682 48.6978ZM63.1606 29.9443V46.4755L63.1332 46.448L63.1327 46.4475C62.0015 45.3193 60.5359 44.587 58.9544 44.3598C57.6442 44.1716 56.3127 44.3385 55.0966 44.8359V22.4709L55.6875 22.4709C55.6876 22.4709 55.6876 22.4709 55.6877 22.4709C57.669 22.4733 59.5684 23.2614 60.9694 24.6624C62.3704 26.0634 63.1584 27.963 63.1606 29.9443ZM60.7067 103.228L60.7057 103.227C59.027 101.903 57.6713 100.215 56.741 98.2895C55.8107 96.3643 55.3302 94.2529 55.3357 92.1147V92.1134V66.7081C57.7908 67.3122 60.3876 67.0306 62.6632 65.9021H62.7665L62.9215 66.0571L62.9215 102.158C62.9215 102.415 62.8491 102.666 62.7126 102.884C62.5761 103.101 62.3811 103.276 62.1498 103.388C61.9186 103.5 61.6606 103.544 61.4053 103.516C61.15 103.487 60.9079 103.388 60.7067 103.228ZM93.339 88.7948L93.3389 88.7961C93.3095 89.0512 93.2087 89.2929 93.0482 89.4934C92.8877 89.6938 92.6739 89.845 92.4314 89.9294L92.5959 90.4016L92.4314 89.9295C92.1889 90.0139 91.9275 90.0284 91.6772 89.971L91.5656 90.4584L91.6772 89.971C91.4268 89.9137 91.1977 89.787 91.0162 89.6054L90.6626 89.9589L91.0161 89.6054L65.3795 63.9686L70.7435 58.6046L89.2777 77.1387L89.2786 77.1396C90.7945 78.6476 91.9477 80.4804 92.6511 82.4996C93.3546 84.5187 93.5898 86.6714 93.339 88.7948Z" fill="#285A43" stroke="#285A43"/>
<path d="M62.5836 56.3309C62.5834 55.2481 62.2079 54.1988 61.521 53.3617C60.8339 52.5245 59.8777 51.9514 58.8155 51.7401C57.7532 51.5288 56.6506 51.6924 55.6954 52.2029C54.7402 52.7135 53.9916 53.5395 53.5771 54.5401C53.1627 55.5408 53.108 56.6541 53.4224 57.6906C53.7369 58.727 54.4009 59.6223 55.3015 60.224C56.2021 60.8257 57.2834 61.0966 58.3612 60.9904C59.4386 60.8842 60.4459 60.4079 61.2116 59.6426C61.6479 59.2086 61.9939 58.6924 62.2294 58.1238C62.4648 57.5555 62.5852 56.9461 62.5836 56.3309ZM62.5836 56.3309C62.5836 56.3307 62.5836 56.3305 62.5836 56.3302L62.0836 56.3316L62.5836 56.3316C62.5836 56.3314 62.5836 56.3311 62.5836 56.3309ZM58.9401 57.3675L58.9391 57.3684C58.6992 57.6084 58.3835 57.7577 58.0458 57.7909C57.7082 57.8241 57.3694 57.7393 57.0873 57.5507C56.8052 57.3622 56.5972 57.0817 56.4987 56.757C56.4002 56.4323 56.4174 56.0835 56.5472 55.77C56.6771 55.4566 56.9117 55.1978 57.2109 55.0379C57.5102 54.878 57.8556 54.8268 58.1884 54.893C58.5212 54.9592 58.8207 55.1388 59.0359 55.4011C59.2512 55.6634 59.3688 55.9922 59.3687 56.3315L59.3687 56.3329C59.3693 56.5251 59.3316 56.7156 59.2581 56.8932L59.72 57.0845L59.2581 56.8932C59.1845 57.0707 59.0765 57.2319 58.9401 57.3675Z" fill="#285A43" stroke="#285A43"/>
</svg>
