<svg width="126" height="126" viewBox="0 0 126 126" fill="none" xmlns="http://www.w3.org/2000/svg">
<path d="M101.982 76.3313L101.983 76.3313L103.657 76.3313C104.083 76.3313 104.492 76.5006 104.793 76.8021C105.095 77.1035 105.264 77.5124 105.264 77.9387V79.6128V79.6134C105.26 83.8271 103.584 87.8669 100.604 90.8464C97.6245 93.826 93.5847 95.502 89.371 95.5067H89.3704H89.3038V101.887C94.631 102.161 99.798 103.819 104.293 106.702C104.472 106.815 104.626 106.962 104.748 107.134C104.871 107.308 104.958 107.504 105.004 107.711L104.516 107.82L105.004 107.711C105.051 107.919 105.055 108.133 105.018 108.342C104.981 108.552 104.903 108.751 104.788 108.93C104.673 109.109 104.524 109.263 104.349 109.384C104.174 109.505 103.977 109.59 103.77 109.634C103.562 109.678 103.347 109.681 103.138 109.641C102.931 109.602 102.733 109.523 102.556 109.407C98.1196 106.568 92.9631 105.059 87.6963 105.059C82.4287 105.059 77.2714 106.568 72.8349 109.408L101.982 76.3313ZM101.982 76.3313C98.8084 76.3352 95.708 77.288 93.0797 79.0673C90.7679 80.6323 88.9141 82.7739 87.6963 85.2713M101.982 76.3313L87.6963 85.2713M87.6963 85.2713C86.4786 82.7739 84.6248 80.6323 82.313 79.0673C79.6846 77.288 76.5843 76.3352 73.4103 76.3313H73.4097H71.7358C71.3095 76.3313 70.9006 76.5006 70.5992 76.8021C70.2977 77.1035 70.1284 77.5124 70.1284 77.9387V79.6128V79.6134C70.1331 83.8271 71.8091 87.8669 74.7886 90.8464C77.7682 93.826 81.8079 95.5019 86.0217 95.5067H86.0222H86.0889V101.887C80.7608 102.161 75.5931 103.819 71.0979 106.703C69.4295 107.772 67.4896 108.34 65.5083 108.34C63.5269 108.34 61.5871 107.772 59.9187 106.703C55.4235 103.819 50.256 102.161 44.9281 101.887V95.5067H44.9946H44.9952C49.2089 95.502 53.2487 93.826 56.2283 90.8464C59.2079 87.8669 60.8839 83.8271 60.8887 79.6134V79.6128V77.9387C60.8887 77.5124 60.7193 77.1035 60.4179 76.8021V76.8021C60.1164 76.5006 59.7076 76.3313 59.2813 76.3313L57.6072 76.3313L57.6066 76.3313C54.4326 76.3352 51.3323 77.2879 48.7039 79.0672C46.3921 80.6322 44.5384 82.7738 43.3206 85.2711C42.1029 82.7738 40.2491 80.6322 37.9373 79.0672C35.309 77.2879 32.2087 76.3352 29.0347 76.3313H29.0341H27.3601C26.9338 76.3313 26.5249 76.5006 26.2235 76.8021C25.922 77.1035 25.7527 77.5124 25.7527 77.9387L25.7527 79.6128L25.7527 79.6134C25.7574 83.8271 27.4334 87.8669 30.413 90.8464C33.3926 93.826 37.4324 95.502 41.6461 95.5067H41.6466H41.7132V101.888C36.3854 102.161 31.2178 103.819 26.7227 106.703L26.7224 106.703C26.3637 106.933 26.1113 107.297 26.0205 107.713C25.9298 108.13 26.0083 108.566 26.2387 108.924L26.2387 108.924C26.4692 109.283 26.8326 109.535 27.2492 109.626C27.6655 109.717 28.1007 109.638 28.4593 109.408L87.6963 85.2713ZM43.3205 105.059C38.0532 105.059 32.8962 106.568 28.46 109.408L43.3205 105.059ZM43.3205 105.059C48.588 105.059 53.7453 106.568 58.1817 109.408M43.3205 105.059L58.1817 109.408M58.1817 109.408C60.3685 110.809 62.9111 111.554 65.5083 111.554M58.1817 109.408L65.5083 111.554M65.5083 111.554C68.1053 111.554 70.6479 110.809 72.8347 109.408L65.5083 111.554ZM57.6077 79.5461L57.6738 79.5461V79.6122C57.67 82.9739 56.3329 86.1969 53.9558 88.5739C51.5787 90.951 48.3558 92.2881 44.9941 92.2918H44.9281V92.2259C44.9319 88.8642 46.269 85.6413 48.646 83.2642C51.0231 80.8872 54.2459 79.55 57.6075 79.5461C57.6076 79.5461 57.6077 79.5461 57.6077 79.5461ZM28.9675 79.6122L28.9675 79.5461L29.0335 79.5461C29.0336 79.5461 29.0337 79.5461 29.0337 79.5461C32.3954 79.55 35.6182 80.8872 37.9952 83.2642C40.3723 85.6413 41.7094 88.8642 41.7132 92.2259V92.2918H41.6472C38.2855 92.288 35.0626 90.9509 32.6855 88.5739C30.3085 86.1969 28.9714 82.9741 28.9675 79.6125C28.9675 79.6124 28.9675 79.6123 28.9675 79.6122ZM73.3432 79.6123V79.5461L73.409 79.5461C73.4091 79.5461 73.4092 79.5461 73.4093 79.5461C76.7709 79.55 79.9937 80.8872 82.3708 83.2642C84.7479 85.6413 86.085 88.8642 86.0888 92.2259V92.2918H86.0227C82.6611 92.288 79.4382 90.9509 77.0611 88.5739C74.6841 86.1968 73.3469 82.9739 73.3432 79.6123ZM102.049 79.6123C102.046 82.9739 100.708 86.1968 98.3314 88.5739C95.9544 90.951 92.7315 92.288 89.3698 92.2918H89.3038V92.2259C89.3076 88.8642 90.6447 85.6413 93.0218 83.2642C95.3989 80.8872 98.6217 79.55 101.983 79.5461C101.983 79.5461 101.983 79.5461 101.984 79.5461L102.049 79.5461L102.049 79.6123Z" fill="#285A43" stroke="#285A43"/>
<path d="M36.9237 61.3197L19.9967 44.3927L19.9967 44.3927C19.4577 43.8537 19.0461 43.2009 18.7921 42.4821C18.5381 41.7634 18.4481 40.9969 18.5286 40.2389C18.6092 39.4809 18.8584 38.7505 19.2578 38.1012C19.6572 37.4519 20.1969 36.9003 20.8372 36.4866L21.1085 36.9065L20.8372 36.4866L26.8058 32.6303L25.5925 31.417L25.5921 31.4166C23.9755 29.7963 23.0677 27.6009 23.0677 25.3121C23.0677 23.0233 23.9755 20.8279 25.5921 19.2076L25.5925 19.2072L27.8248 16.9751C28.6265 16.1734 29.5783 15.5374 30.6258 15.1035C31.6733 14.6696 32.796 14.4463 33.9298 14.4463C35.0636 14.4463 36.1863 14.6696 37.2338 15.1035C38.2813 15.5374 39.233 16.1734 40.0347 16.9751L39.6812 17.3287L40.0348 16.9751L45.255 22.1955L45.2564 22.1967L45.2712 22.2116L59.1453 36.0858C59.4052 36.3458 59.5682 36.687 59.607 37.0526C59.6459 37.4181 59.5582 37.786 59.3587 38.0947L56.49 42.5348L65.9434 43.7122L69.5502 41.4361L69.817 41.859L69.5502 41.4361C69.7933 41.2827 70.0732 41.1973 70.3606 41.1888C70.648 41.1803 70.9324 41.2491 71.1842 41.3879C71.4359 41.5267 71.6459 41.7306 71.7921 41.9781C71.9383 42.2257 72.0154 42.508 72.0154 42.7955V52.746C72.0154 53.0335 71.9383 53.3158 71.7921 53.5633C71.6459 53.8109 71.436 54.0147 71.1842 54.1536L70.9427 53.7157L71.1842 54.1536C70.9324 54.2924 70.648 54.3612 70.3606 54.3527C70.0732 54.3442 69.7933 54.2588 69.5502 54.1054L69.5501 54.1054L65.9434 51.829L49.1323 53.9227L44.8705 60.5189L36.9237 61.3197ZM36.9237 61.3197L36.9633 61.3595C37.4364 61.8346 37.9987 62.2115 38.6179 62.4685C39.2371 62.7256 39.901 62.8577 40.5714 62.8573C40.754 62.8572 40.9363 62.8475 41.1178 62.8281C41.1179 62.8281 41.1181 62.8281 41.1182 62.8281L41.0651 62.3309C41.7493 62.2596 42.4087 62.0355 42.9946 61.675L36.9237 61.3197ZM66.1167 46.9735L66.1178 46.9736C66.4858 47.0186 66.8582 46.9355 67.1721 46.7383L67.173 46.7377L68.8005 45.7107V49.8307L67.173 48.8035L67.1725 48.8032C66.8584 48.6055 66.4857 48.5223 66.1173 48.5677L66.1167 48.5678L51.4086 50.3996L54.5527 45.5333L66.1167 46.9735ZM21.7254 40.5798L21.7256 40.5777C21.7549 40.2967 21.8469 40.0258 21.995 39.7852C22.143 39.5446 22.3432 39.3403 22.5808 39.1874L22.5817 39.1869L43.9162 25.403L55.9538 37.4407L42.1697 58.7749L42.1697 58.775C42.0162 59.0125 41.8116 59.2127 41.5708 59.3609C41.3299 59.509 41.059 59.6014 40.7778 59.6313C40.4966 59.6612 40.2123 59.6278 39.9457 59.5336C39.6791 59.4393 39.437 59.2866 39.2371 59.0866L39.237 59.0867L22.27 42.1197L22.2693 42.119C22.0691 41.9196 21.9162 41.6777 21.8221 41.4113C21.7279 41.1449 21.6949 40.8607 21.7254 40.5798ZM27.8662 29.1444C26.8514 28.1272 26.2814 26.749 26.2814 25.3122C26.2814 23.8753 26.8514 22.4971 27.8662 21.4799L30.098 19.2483C31.1143 18.2321 32.4926 17.6612 33.9297 17.6612C35.3668 17.6612 36.7451 18.2321 37.7613 19.2482C37.7614 19.2483 37.7614 19.2483 37.7614 19.2483L41.591 23.0779L29.5677 30.8459L27.8662 29.1444Z" fill="#285A43" stroke="#285A43"/>
<path d="M91.0947 59.7228L91.0947 59.7228L86.9585 56.0337L87.2753 55.6469C87.2751 55.6467 87.2749 55.6465 87.2746 55.6463C87.1115 55.5128 86.9237 55.4127 86.7219 55.3517C86.5198 55.2906 86.3077 55.27 86.0977 55.2909C85.8876 55.3117 85.6837 55.3738 85.4976 55.4735C85.3116 55.5732 85.147 55.7086 85.0132 55.8719C84.7431 56.2017 84.615 56.6253 84.6572 57.0495C84.6994 57.4738 84.9084 57.8639 85.2382 58.134L85.2398 58.1353C86.4661 59.1311 87.5518 60.2883 88.4674 61.5755C88.7129 61.9234 89.0865 62.1597 89.5061 62.2325C89.9262 62.3053 90.358 62.2082 90.7065 61.9627C91.055 61.7172 91.2917 61.3432 91.3645 60.9232C91.4373 60.5031 91.3403 60.0713 91.0947 59.7228Z" fill="#285A43" stroke="#285A43"/>
<path d="M91.3922 70.3843L91.3922 70.3843C91.3227 68.8072 91.0425 67.2464 90.559 65.7436L91.035 65.5904L90.5598 65.746C90.4941 65.5454 90.4686 65.3338 90.4847 65.1233C90.5008 64.9129 90.5582 64.7076 90.6536 64.5193C90.749 64.331 90.8806 64.1634 91.0409 64.026C91.2011 63.8886 91.3868 63.7841 91.5873 63.7185L91.3922 70.3843ZM91.3922 70.3843L91.3923 70.3867M91.3922 70.3843L91.3923 70.3867M91.3923 70.3867C91.4124 70.7988 91.5902 71.1873 91.8888 71.4719C92.1874 71.7566 92.584 71.9155 92.9965 71.9159H92.997M91.3923 70.3867L92.997 71.9159M92.997 71.9159C93.0239 71.9159 93.0491 71.9152 93.0713 71.9143L93.0713 71.9144M92.997 71.9159L93.0713 71.9144M93.0713 71.9144L93.0762 71.9141M93.0713 71.9144L93.0762 71.9141M93.0762 71.9141C93.502 71.8933 93.902 71.7043 94.1885 71.3885C94.4745 71.0733 94.6238 70.6575 94.6037 70.2324C94.5205 68.3684 94.1882 66.524 93.6156 64.7482L93.6156 64.7482M93.0762 71.9141L93.6156 64.7482M93.6156 64.7482L93.615 64.7463M93.6156 64.7482L93.615 64.7463M93.615 64.7463C93.5493 64.5456 93.4448 64.3598 93.3074 64.1996C93.17 64.0394 93.0024 63.9078 92.8141 63.8123L92.5939 64.2467M93.615 64.7463L92.5939 64.2467M92.5939 64.2467L92.8141 63.8123C92.6258 63.7169 92.4205 63.6595 92.21 63.6434M92.5939 64.2467L92.21 63.6434M92.21 63.6434C91.9996 63.6273 91.7881 63.6528 91.5875 63.7184L92.21 63.6434Z" fill="#285A43" stroke="#285A43"/>
<path d="M81.1914 55.5329L81.1914 55.5329L81.1946 55.5345C81.3833 55.629 81.5888 55.6855 81.7994 55.7006C82.0099 55.7158 82.2214 55.6893 82.4217 55.6227C82.622 55.5561 82.8072 55.4507 82.9668 55.3125C83.1264 55.1743 83.2572 55.006 83.3517 54.8173C83.4463 54.6286 83.5027 54.4231 83.5179 54.2125C83.533 54.002 83.5065 53.7905 83.4399 53.5902L82.9655 53.7479L83.4399 53.5902C83.3733 53.3899 83.2679 53.2046 83.1297 53.0451C82.9921 52.8861 82.8245 52.7556 82.6366 52.6612C80.98 51.8137 79.2321 51.1583 77.4267 50.7076L77.418 50.7054L77.4092 50.7036C76.9939 50.6156 76.5607 50.6955 76.2042 50.9258C75.8476 51.1561 75.5966 51.518 75.5059 51.9327C75.4152 52.3474 75.4922 52.7811 75.7201 53.1392C75.9466 53.4951 76.3039 53.7476 76.7147 53.8424C78.2647 54.2391 79.7661 54.806 81.1914 55.5329Z" fill="#285A43" stroke="#285A43"/>
<path d="M96.8236 51.8646L96.8235 51.8646L96.8289 51.8685C98.1281 52.8101 99.319 53.8926 100.38 55.0964C100.662 55.4164 101.059 55.6114 101.484 55.6384C101.91 55.6655 102.329 55.5225 102.649 55.2408C102.969 54.9591 103.164 54.5618 103.191 54.1363C103.218 53.7108 103.075 53.292 102.793 52.972L102.793 52.9718C101.575 51.5898 100.208 50.347 98.7159 49.266L98.7159 49.2659L98.7108 49.2623C98.3654 49.0186 97.9379 48.9208 97.5209 48.99C97.1039 49.0592 96.731 49.2898 96.4828 49.632C96.2346 49.9742 96.1313 50.4004 96.195 50.8182C96.2588 51.2361 96.4846 51.612 96.8236 51.8646Z" fill="#285A43" stroke="#285A43"/>
<path d="M88.0277 47.8699L88.0277 47.8699C87.616 47.7647 87.2626 47.5007 87.045 47.1357C86.8274 46.7707 86.7632 46.3344 86.8664 45.9222C86.9695 45.5099 87.2318 45.1553 87.5957 44.9359C87.9596 44.7165 88.3956 44.6501 88.8083 44.7513L88.8097 44.7516L88.8097 44.7516C90.5755 45.1898 92.2992 45.7832 93.9605 46.5248L88.0277 47.8699ZM88.0277 47.8699L88.0311 47.8707M88.0277 47.8699L88.0311 47.8707M88.0311 47.8707C89.6125 48.2629 91.1561 48.794 92.6441 49.4578M88.0311 47.8707L92.6441 49.4578M92.6441 49.4578C92.8363 49.5446 93.0437 49.5927 93.2546 49.5994C93.466 49.6062 93.6766 49.5711 93.8744 49.4963C94.0722 49.4215 94.2532 49.3084 94.4073 49.1635C94.5613 49.0185 94.6852 48.8447 94.7719 48.6518C94.8585 48.4589 94.9063 48.2508 94.9124 48.0394C94.9186 47.828 94.8829 47.6175 94.8076 47.4199C94.7322 47.2223 94.6186 47.0416 94.4732 46.888C94.3279 46.7344 94.1537 46.611 93.9606 46.5249L92.6441 49.4578Z" fill="#285A43" stroke="#285A43"/>
<path d="M105.957 57.4676L105.957 57.4676L105.956 57.4662C105.853 57.2818 105.715 57.1194 105.55 56.9883C105.384 56.8573 105.195 56.7601 104.992 56.7023C104.789 56.6445 104.576 56.6273 104.366 56.6516C104.157 56.6759 103.954 56.7412 103.769 56.8439C103.585 56.9467 103.423 57.0847 103.292 57.2501C103.16 57.4156 103.063 57.6053 103.005 57.8083C102.948 58.0113 102.93 58.2237 102.955 58.4334C102.979 58.6431 103.044 58.846 103.147 59.0304L103.584 58.7871L103.146 59.0289C103.931 60.4492 104.583 61.9389 105.094 63.479L105.094 63.4802C105.229 63.8845 105.52 64.2185 105.901 64.4088C106.283 64.599 106.724 64.6299 107.128 64.4946C107.533 64.3594 107.867 64.0691 108.057 63.6875C108.247 63.3064 108.278 62.8654 108.143 62.4614C107.57 60.7331 106.838 59.0614 105.957 57.4676Z" fill="#285A43" stroke="#285A43"/>
<path d="M83.178 47.0529L83.1776 47.0529C82.1917 46.9626 81.2083 46.917 80.2553 46.917C79.6514 46.917 79.1674 46.9358 78.8349 46.9546C78.5076 46.9731 78.327 46.9915 78.322 46.9921C78.322 46.9921 78.322 46.9921 78.3219 46.9921C77.9002 47.0329 77.4795 46.9056 77.1512 46.6378C76.8228 46.37 76.6135 45.9834 76.5687 45.562C76.5239 45.1407 76.6473 44.7187 76.912 44.3878C77.1768 44.057 77.5614 43.8441 77.9823 43.7954L77.9875 43.7948L77.9875 43.7948C78.0354 43.7897 78.8763 43.7021 80.2554 43.7021C81.3069 43.7021 82.3884 43.7524 83.4705 43.8513L83.178 47.0529ZM83.178 47.0529C83.2284 47.0575 83.2775 47.0595 83.3254 47.0595L83.3258 47.0595C83.7393 47.0592 84.1368 46.8995 84.4357 46.6136C84.7345 46.3277 84.9116 45.9377 84.9303 45.5245C84.9489 45.1114 84.8076 44.707 84.5357 44.3953C84.2639 44.0837 83.8824 43.8889 83.4706 43.8513L83.4251 44.3492C83.7088 44.3751 83.9717 44.5094 84.159 44.724C84.3463 44.9387 84.4436 45.2174 84.4308 45.502C84.418 45.7866 84.2959 46.0553 84.09 46.2523C83.8841 46.4493 83.6103 46.5593 83.3254 46.5595C83.2917 46.5595 83.2577 46.5581 83.2232 46.555L83.178 47.0529Z" fill="#285A43" stroke="#285A43"/>
</svg>
