<svg width="313" height="406" viewBox="0 0 313 406" fill="none" xmlns="http://www.w3.org/2000/svg">
<path d="M312.461 100.309C312.411 99.3284 312.036 98.3928 311.395 97.6497C310.754 96.9067 309.885 96.3986 308.923 96.2057C300.822 94.6388 292.578 93.9355 284.329 94.1076C284.215 94.1226 284.099 94.1147 283.988 94.0843C283.877 94.0539 283.773 94.0017 283.683 93.9307C283.592 93.8596 283.517 93.7713 283.46 93.6707C283.404 93.5701 283.369 93.4593 283.356 93.3448C283.321 93.2414 283.307 93.1319 283.316 93.0229C283.324 92.914 283.355 92.8079 283.405 92.7111C283.456 92.6142 283.526 92.5287 283.61 92.4597C283.695 92.3907 283.793 92.3396 283.898 92.3096C290.933 89.194 298.308 86.912 305.872 85.5099C306.47 85.4035 307.039 85.1747 307.544 84.8379C308.049 84.5011 308.48 84.0635 308.808 83.5525C309.137 83.0415 309.356 82.4682 309.453 81.8683C309.55 81.2685 309.523 80.655 309.372 80.0664C306.46 68.7018 301.69 57.8981 295.255 48.0934C295.174 47.9712 295.088 47.8524 294.996 47.7389L293.619 46.0333C293.103 45.3953 292.421 44.9138 291.647 44.6425C290.874 44.3713 290.04 44.3212 289.24 44.4977C278.009 47.1079 267.176 51.2038 257.026 56.6774C256.655 56.9069 256.211 56.9869 255.784 56.9013C255.357 56.8157 254.978 56.5709 254.724 56.2163C254.434 55.9078 254.275 55.4994 254.279 55.0762C254.283 54.653 254.449 54.2476 254.744 53.9444C261.192 45.9926 268.692 38.9578 277.038 33.0345C277.535 32.6882 277.957 32.2429 278.275 31.7263C278.593 31.2098 278.801 30.6331 278.887 30.0323C278.973 29.4314 278.934 28.8194 278.773 28.2343C278.612 27.6492 278.332 27.1037 277.95 26.6318L276.136 24.3859C270.943 17.7416 264.491 12.1884 257.151 8.04458C249.81 3.90072 241.726 1.24755 233.359 0.237069C229.033 -0.320408 224.636 0.108343 220.498 1.49129C216.36 2.87423 212.587 5.1756 209.463 8.22343C206.338 11.2713 203.941 14.9867 202.452 19.0922C200.963 23.1977 200.42 27.587 200.864 31.9322L201.744 41.7211C201.852 42.9249 201.698 44.1378 201.293 45.2762C200.888 46.4147 200.241 47.4515 199.396 48.3153C198.552 49.179 197.531 49.8491 196.402 50.2793C195.274 50.7095 194.067 50.8895 192.862 50.807L183.068 50.1367C178.72 49.7866 174.348 50.4249 170.281 52.0039C166.214 53.583 162.555 56.0619 159.579 59.2555C156.603 62.4491 154.386 66.2748 153.095 70.4467C151.803 74.6186 151.47 79.0288 152.12 83.3478C153.305 91.6903 156.122 99.7169 160.41 106.968C164.697 114.22 170.37 120.553 177.105 125.607L179.438 127.414C179.971 127.82 180.59 128.1 181.248 128.23C177.864 164.589 177.061 211.384 178.854 268.027H151.797C156.423 222.756 154.458 190.778 149.437 168.188C153.675 158.99 155.643 148.906 155.173 138.787C155.017 134.422 153.878 130.149 151.841 126.287C149.803 122.425 146.921 119.074 143.408 116.484C139.895 113.894 135.843 112.132 131.554 111.331C127.266 110.529 122.852 110.709 118.643 111.855L109.14 114.32C107.971 114.623 106.751 114.669 105.563 114.454C104.375 114.239 103.248 113.769 102.259 113.076C101.271 112.383 100.444 111.483 99.8359 110.439C99.228 109.395 98.8535 108.231 98.7383 107.028L97.8018 97.244C97.4381 92.8914 96.0965 88.6774 93.8775 84.9168C91.6584 81.1563 88.6192 77.9465 84.9869 75.5273C81.3547 73.1081 77.2233 71.542 72.9016 70.9462C68.5798 70.3503 64.1795 70.7401 60.0293 72.0863C52.002 74.6177 44.552 78.7089 38.1055 84.126C31.659 89.5431 26.3426 96.1796 22.4605 103.656L21.0599 106.255C20.7721 106.789 20.5974 107.377 20.5466 107.982C20.4959 108.587 20.5703 109.195 20.7651 109.77C20.9599 110.345 21.2709 110.873 21.6788 111.322C22.0867 111.771 22.5827 112.131 23.1357 112.38C32.4282 116.662 41.0944 122.193 48.8951 128.819C49.2409 129.062 49.4793 129.43 49.5609 129.846C49.6425 130.261 49.5608 130.692 49.333 131.048C49.1492 131.444 48.8219 131.755 48.4175 131.918C48.013 132.081 47.5618 132.084 47.1553 131.926C36.1714 128.419 24.7699 126.392 13.2515 125.898C12.4331 125.876 11.6247 126.081 10.9152 126.49C10.2057 126.899 9.62243 127.496 9.22953 128.215L8.18975 130.146C8.12044 130.274 8.05767 130.406 8.00169 130.541C3.48019 141.365 0.779619 152.864 0.00949917 164.571C-0.0303171 165.178 0.0553202 165.786 0.261049 166.357C0.466778 166.929 0.788165 167.452 1.2051 167.894C1.62204 168.335 2.12554 168.686 2.68409 168.924C3.24264 169.162 3.84421 169.282 4.45115 169.276C12.1438 169.261 19.812 170.144 27.3007 171.906C27.4094 171.916 27.515 171.948 27.6109 172C27.7068 172.052 27.7911 172.124 27.8587 172.209C27.9262 172.295 27.9757 172.394 28.004 172.5C28.0323 172.605 28.0388 172.715 28.0233 172.824C28.0324 172.938 28.0183 173.054 27.982 173.163C27.9457 173.273 27.8878 173.374 27.8118 173.46C27.7358 173.547 27.6433 173.617 27.5396 173.667C27.4359 173.718 27.3233 173.746 27.2083 173.752C19.0692 175.108 11.0957 177.32 3.42039 180.352C2.51105 180.719 1.74977 181.378 1.25687 182.227C0.763966 183.076 0.567545 184.064 0.698636 185.037C1.15924 188.455 1.76477 191.754 2.4983 194.845L10.7035 229.383C11.36 232.142 12.9257 234.599 15.1478 236.358C17.3699 238.117 20.1191 239.075 22.9519 239.079C23.4402 239.078 23.9282 239.05 24.4133 238.994L59.6353 234.9C62.7855 234.534 66.0896 233.976 69.4549 233.24C70.4128 233.03 71.2737 232.507 71.9016 231.753C72.5294 230.999 72.8884 230.058 72.9218 229.076C73.1424 220.818 72.4915 212.56 70.98 204.439C70.9461 204.329 70.9346 204.213 70.9462 204.098C70.9578 203.984 70.9922 203.872 71.0474 203.771C71.1026 203.67 71.1776 203.581 71.2677 203.51C71.3579 203.438 71.4615 203.385 71.5724 203.355C71.6687 203.303 71.7744 203.271 71.8833 203.262C71.9921 203.252 72.1017 203.265 72.2054 203.299C72.3092 203.334 72.4049 203.389 72.4867 203.461C72.5686 203.533 72.6349 203.622 72.6816 203.721C76.8986 210.162 80.3497 217.075 82.9649 224.319C83.1672 224.892 83.4854 225.417 83.8996 225.861C84.3138 226.305 84.8152 226.659 85.3722 226.9C85.9293 227.141 86.5301 227.265 87.137 227.263C87.7439 227.261 88.3439 227.133 88.8994 226.889C99.6238 222.16 109.492 215.686 118.105 207.731C118.213 207.631 118.315 207.527 118.412 207.417L119.868 205.779C120.413 205.166 120.777 204.413 120.918 203.604C121.059 202.796 120.972 201.965 120.668 201.203C116.264 190.535 110.462 180.501 103.414 171.367C103.128 171.038 102.976 170.613 102.991 170.177C103.006 169.74 103.185 169.326 103.493 169.018C103.75 168.681 104.126 168.457 104.544 168.392C104.962 168.326 105.389 168.425 105.736 168.667C114.623 173.74 122.777 180.001 129.974 187.28C130.397 187.715 130.904 188.059 131.465 188.289C132.026 188.519 132.628 188.631 133.234 188.618C133.84 188.605 134.437 188.466 134.987 188.212C135.538 187.957 136.03 187.592 136.432 187.138L138.35 184.98C139.918 183.261 141.391 181.457 142.763 179.578C146.188 200.618 147.034 229.199 142.963 268.028H87.7895C87.1278 268.027 86.4745 268.177 85.8782 268.464C85.2818 268.751 84.7576 269.168 84.3444 269.686C83.9312 270.203 83.6396 270.807 83.4913 271.453C83.3429 272.098 83.3415 272.769 83.4873 273.416L108.826 385.785C110.08 391.459 113.236 396.532 117.769 400.161C122.303 403.789 127.94 405.754 133.744 405.729H194.504C200.308 405.754 205.946 403.789 210.48 400.161C215.013 396.532 218.17 391.459 219.423 385.785L244.763 273.415C244.908 272.769 244.907 272.098 244.759 271.452C244.61 270.807 244.319 270.203 243.905 269.685C243.492 269.168 242.968 268.75 242.372 268.463C241.775 268.176 241.122 268.027 240.46 268.027H187.68C185.482 198.725 187.41 151.478 191.006 119.277C195.585 113.596 200.674 108.347 206.21 103.596C206.507 103.294 206.908 103.119 207.33 103.106C207.753 103.094 208.164 103.244 208.478 103.527C208.838 103.774 209.091 104.148 209.185 104.574C209.28 104.999 209.21 105.446 208.988 105.821C203.741 116.1 199.884 127.032 197.52 138.33C197.361 139.135 197.429 139.968 197.716 140.737C198.004 141.505 198.5 142.178 199.148 142.68L200.88 144.022C200.996 144.111 201.116 144.195 201.24 144.273C211.169 150.503 222.06 155.046 233.471 157.715C234.062 157.853 234.675 157.868 235.272 157.757C235.869 157.647 236.437 157.415 236.94 157.075C237.443 156.735 237.871 156.295 238.196 155.782C238.521 155.269 238.738 154.695 238.831 154.094C240.068 146.492 242.189 139.061 245.148 131.952C245.176 131.847 245.225 131.748 245.292 131.662C245.359 131.575 245.443 131.504 245.539 131.451C245.634 131.398 245.74 131.366 245.848 131.355C245.957 131.344 246.066 131.355 246.17 131.388C246.285 131.397 246.397 131.43 246.499 131.484C246.601 131.538 246.691 131.611 246.764 131.7C246.837 131.789 246.891 131.892 246.923 132.003C246.956 132.114 246.966 132.23 246.953 132.344C246.961 140.605 247.841 148.842 249.578 156.918C249.792 157.876 250.318 158.736 251.074 159.361C251.829 159.986 252.772 160.342 253.752 160.371C254.837 160.403 255.913 160.419 256.978 160.419C259.288 160.419 261.542 160.343 263.709 160.192L299.082 157.718C302.159 157.501 305.049 156.163 307.207 153.955C309.364 151.748 310.638 148.826 310.788 145.741L312.497 110.281C312.65 107.107 312.638 103.752 312.461 100.309ZM132.922 177.801C125.996 171.368 118.363 165.742 110.169 161.033C108.064 159.753 105.572 159.264 103.139 159.654C100.707 160.044 98.4918 161.288 96.8904 163.162C95.239 165.003 94.2839 167.364 94.191 169.837C94.0982 172.309 94.8735 174.736 96.3822 176.696C102.366 184.473 107.408 192.933 111.402 201.899C104.828 207.85 97.4745 212.875 89.5439 216.835C86.9428 210.59 83.7778 204.595 80.0883 198.925C78.8613 197.028 77.0153 195.615 74.8647 194.928C72.7141 194.241 70.392 194.321 68.294 195.156C66.1961 195.991 64.452 197.528 63.3591 199.505C62.2661 201.483 61.8919 203.779 62.3001 206.002C63.4735 212.368 64.095 218.824 64.1576 225.297C62.2651 225.642 60.4118 225.92 58.6178 226.128L23.3966 230.221C22.4774 230.329 21.5509 230.094 20.7929 229.563C20.0349 229.031 19.498 228.24 19.2842 227.338L11.0792 192.801C10.6614 191.042 10.2886 189.203 9.96512 187.305C16.0618 185.15 22.3334 183.526 28.7096 182.453C30.9355 182.077 32.9623 180.94 34.4446 179.235C35.927 177.53 36.7731 175.364 36.839 173.105C36.9049 170.845 36.1864 168.633 34.8059 166.845C33.4255 165.056 31.4684 163.803 29.2682 163.297C22.6853 161.765 15.9764 160.837 9.22512 160.526C10.2291 151.71 12.43 143.073 15.7669 134.853C25.5477 135.544 35.2122 137.394 44.5578 140.364C46.9128 141.114 49.4558 141.014 51.7447 140.081C54.0336 139.148 55.9236 137.442 57.0863 135.259C58.2981 133.111 58.7077 130.602 58.2419 128.179C57.7761 125.757 56.4651 123.579 54.5434 122.036C47.3205 115.938 39.4296 110.68 31.0224 106.364C37.8691 94.0222 49.1784 84.7757 62.625 80.5258C65.5238 79.5653 68.6028 79.2774 71.629 79.6841C74.6553 80.0908 77.5495 81.1813 80.0927 82.8731C82.6359 84.5649 84.7614 86.8137 86.3085 89.4494C87.8555 92.085 88.7835 95.0384 89.0223 98.0862L89.9588 107.87C90.3031 111.431 91.7512 114.795 94.1003 117.491C93.7042 117.771 93.3576 118.116 93.0749 118.511L42.0886 191.415C41.751 191.89 41.5107 192.427 41.3814 192.995C41.2522 193.563 41.2365 194.152 41.3353 194.726C41.4342 195.3 41.6455 195.849 41.9573 196.341C42.2691 196.833 42.675 197.259 43.1518 197.593C43.6285 197.927 44.1666 198.163 44.7351 198.288C45.3035 198.413 45.8911 198.425 46.4638 198.321C47.0366 198.218 47.5833 198.002 48.0723 197.686C48.5613 197.37 48.9831 196.96 49.3132 196.48L100.3 123.576C100.573 123.175 100.779 122.731 100.907 122.263C104.24 123.551 107.893 123.763 111.353 122.868L120.856 120.403C123.798 119.585 126.887 119.448 129.89 120.002C132.892 120.556 135.73 121.787 138.187 123.601C140.645 125.415 142.658 127.765 144.075 130.473C145.492 133.181 146.275 136.176 146.365 139.232C146.972 153.336 142.162 167.137 132.922 177.801ZM210.819 383.84C209.998 387.554 207.932 390.876 204.964 393.252C201.995 395.628 198.304 396.914 194.504 396.898H133.744C129.944 396.914 126.253 395.628 123.285 393.252C120.317 390.876 118.251 387.554 117.43 383.84L93.3061 276.858H234.943L210.819 383.84ZM303.687 109.855L301.978 145.315C301.934 146.24 301.551 147.117 300.904 147.779C300.257 148.441 299.39 148.843 298.467 148.907L263.095 151.382C261.293 151.508 259.42 151.576 257.497 151.587C256.367 145.213 255.79 138.753 255.772 132.279C255.775 130.008 254.983 127.808 253.534 126.061C252.086 124.314 250.071 123.131 247.841 122.717C247.216 122.595 246.58 122.534 245.942 122.533C244.014 122.532 242.129 123.11 240.532 124.192C238.936 125.275 237.7 126.812 236.985 128.605C234.402 134.858 232.395 141.334 230.987 147.952C222.464 145.523 214.312 141.941 206.756 137.305C209.031 127.756 212.429 118.511 216.88 109.763C218.002 107.559 218.318 105.03 217.772 102.617C217.226 100.204 215.852 98.059 213.89 96.5544C211.972 95.0071 209.566 94.1934 207.103 94.2588C204.64 94.3242 202.28 95.2644 200.446 96.9114C193.259 103.052 186.791 109.989 181.168 117.591C170.122 108.816 162.854 96.1367 160.858 82.1609C160.385 79.1408 160.603 76.0523 161.497 73.1291C162.391 70.2059 163.938 67.5246 166.02 65.2882C168.102 63.0517 170.664 61.3187 173.514 60.2201C176.363 59.1216 179.425 58.6864 182.467 58.9474L192.262 59.6177C195.827 59.8581 199.378 58.976 202.417 57.095C202.629 57.5322 202.913 57.9309 203.256 58.2747L266.785 120.525C267.621 121.344 268.748 121.797 269.918 121.785C271.087 121.772 272.204 121.295 273.022 120.458C273.84 119.621 274.292 118.493 274.28 117.322C274.267 116.151 273.79 115.033 272.954 114.214L209.425 51.9631C209.074 51.6272 208.67 51.3522 208.229 51.1494C210.042 48.0663 210.846 44.4926 210.529 40.929L209.649 31.1402C209.323 28.1006 209.691 25.0265 210.727 22.1506C211.763 19.2748 213.438 16.6724 215.626 14.5404C217.815 12.4085 220.459 10.8028 223.358 9.84481C226.258 8.88686 229.337 8.60175 232.363 9.01108C246.36 10.7108 259.175 17.7123 268.177 28.5774C260.708 34.3703 253.921 40.9934 247.944 48.3196C246.34 50.1913 245.452 52.5732 245.44 55.0399C245.427 57.5065 246.292 59.8971 247.878 61.7846C249.422 63.716 251.594 65.0445 254.016 65.5392C256.437 66.034 258.955 65.6637 261.132 64.4927C269.771 59.8491 278.93 56.2479 288.416 53.7648C293.208 61.2282 296.961 69.3113 299.57 77.7904C292.992 79.3417 286.569 81.4909 280.38 84.2112C278.311 85.114 276.618 86.7073 275.59 88.7198C274.562 90.7322 274.263 93.0392 274.743 95.2477C275.224 97.4563 276.454 99.4297 278.225 100.832C279.996 102.234 282.197 102.978 284.454 102.937C290.919 102.815 297.381 103.253 303.77 104.247C303.802 106.173 303.774 108.049 303.687 109.855Z" fill="white"/>
</svg>
