<svg width="310" height="348" viewBox="0 0 310 348" fill="none" xmlns="http://www.w3.org/2000/svg">
<path d="M307.536 28.9892C306.474 27.579 305.051 26.4808 303.418 25.8098C301.785 25.1389 300.001 24.9201 298.254 25.1762C265.08 30.0348 234.13 44.4484 206.768 67.507C206.078 65.1008 205.239 62.7398 204.256 60.4379C202.562 56.247 200.81 51.9135 201.64 48.8256C202.28 46.4423 205.606 43.81 208.822 41.2646C212.811 38.1078 217.331 34.5297 219.375 29.5317C221.2 25.0688 220.518 19.9526 219.858 15.0053C219.465 12.5777 219.254 10.1243 219.224 7.66532C219.253 6.29666 218.906 4.94623 218.22 3.7614C217.535 2.57658 216.537 1.60289 215.335 0.946622C214.125 0.276253 212.754 -0.048943 211.371 0.00649748C209.989 0.061938 208.648 0.495886 207.495 1.26102C183.07 17.4504 165.137 41.649 154.751 72.1146C144.364 41.6546 126.448 17.4481 102.027 1.26102C100.874 0.495522 99.5329 0.0614025 98.1502 0.00604735C96.7674 -0.0493078 95.396 0.276225 94.1856 0.947118C92.9844 1.60351 91.9866 2.57717 91.3009 3.76187C90.6153 4.94657 90.2681 6.29682 90.2974 7.66532C90.2671 10.1243 90.0552 12.5776 89.6636 15.0053C89.0036 19.9525 88.3208 25.0678 90.146 29.5307C92.1895 34.5292 96.711 38.1073 100.7 41.2646C103.916 43.81 107.242 46.4418 107.882 48.8251C108.712 51.913 106.96 56.247 105.266 60.4379C104.283 62.7397 103.444 65.1005 102.754 67.5067C75.3912 44.4479 44.4416 30.0343 11.2671 25.1757C9.52075 24.9209 7.73804 25.1401 6.10551 25.8105C4.47298 26.4809 3.05067 27.5778 1.98742 28.9863C0.924162 30.3949 0.259067 32.0634 0.0617407 33.8171C-0.135585 35.5709 0.142108 37.3454 0.865764 38.955C2.03522 41.7042 3.06549 44.5104 3.95266 47.3632C6.06686 53.7602 8.25267 60.3749 12.9127 64.5526C18.1808 69.2753 25.4727 70.8881 32.5236 72.4481C38.6715 73.8081 44.4782 75.0927 47.1236 78.1435C50.441 81.9691 50.9029 88.787 51.3497 95.3808C51.7969 101.983 52.2597 108.81 55.6021 113.906C59.585 119.976 66.5738 123.669 72.7398 126.927C78.1988 129.812 83.355 132.537 84.9742 135.973C87.4429 141.212 85.8642 148.299 84.3375 155.153C83.531 158.422 82.9431 161.74 82.5775 165.087H72.937C71.7435 165.087 70.5989 165.561 69.755 166.405C68.9111 167.249 68.437 168.394 68.437 169.587V188.052C68.4256 223.736 74.2444 259.182 85.6635 292.989L91.7289 310.966H83.977C82.7835 310.966 81.6389 311.44 80.795 312.284C79.9511 313.127 79.477 314.272 79.477 315.466V343.229C79.477 344.423 79.9511 345.567 80.795 346.411C81.6389 347.255 82.7835 347.729 83.977 347.729H225.545C226.739 347.729 227.883 347.255 228.727 346.411C229.571 345.567 230.045 344.423 230.045 343.229V315.466C230.045 314.272 229.571 313.128 228.727 312.284C227.883 311.44 226.739 310.966 225.545 310.966H217.794L223.86 292.989C235.278 259.182 241.097 223.736 241.085 188.052V169.587C241.085 168.394 240.611 167.249 239.767 166.405C238.923 165.561 237.779 165.087 236.585 165.087H226.945C226.58 161.741 225.992 158.422 225.185 155.153C223.659 148.3 222.08 141.213 224.548 135.973C226.168 132.537 231.324 129.812 236.783 126.927C242.949 123.669 249.937 119.976 253.921 113.905C257.263 108.81 257.726 101.983 258.172 95.381C258.62 88.7872 259.081 81.9693 262.398 78.1437C265.044 75.0929 270.85 73.8082 276.999 72.4483C284.05 70.8883 291.341 69.2755 296.609 64.5528C301.269 60.3751 303.455 53.7599 305.569 47.3628C306.456 44.5105 307.487 41.7046 308.656 38.9556C309.38 37.3468 309.659 35.5726 309.462 33.819C309.265 32.0655 308.6 30.3972 307.536 28.9892ZM210.288 10.2421C210.41 12.2465 210.677 14.2441 210.937 16.1957C211.441 19.974 211.962 23.8813 211.045 26.1249C209.895 28.9379 206.51 31.6171 203.237 34.2074C198.873 37.661 194.362 41.2323 192.948 46.4897C191.335 52.4897 193.767 58.5043 195.911 63.811C197.314 67.2802 198.764 70.8676 198.463 73.1869C198.349 73.9669 198.139 74.73 197.84 75.4593C186.168 86.5037 175.579 98.638 166.215 111.697C162.023 117.502 158.219 123.233 154.765 128.786C154.42 128.231 154.054 127.666 153.702 127.108C154.132 118.345 155.112 109.618 156.637 100.978C163.859 60.4633 181.902 29.9521 210.288 10.2421ZM111.058 73.1869C110.758 70.8681 112.208 67.2807 113.61 63.8114C115.755 58.5048 118.187 52.4902 116.574 46.4897C115.161 41.2323 110.649 37.661 106.285 34.2074C103.011 31.6174 99.6267 28.9374 98.4763 26.1249C97.5593 23.8818 98.0803 19.9749 98.5847 16.1957C98.8447 14.2441 99.1116 12.2465 99.2336 10.2411C124.527 27.8051 141.604 53.9579 150.134 88.1186C149.25 91.8044 148.464 95.5647 147.776 99.3993C146.816 104.785 146.113 109.987 145.599 114.934C144.844 113.856 144.088 112.779 143.306 111.697C133.943 98.6379 123.353 86.5036 111.681 75.4591C111.382 74.7299 111.173 73.9668 111.058 73.1869ZM93.1155 132.137C90.2155 125.984 83.469 122.418 76.9446 118.97C71.4846 116.085 65.8386 113.101 63.1272 108.969C61.0789 105.846 60.7146 100.468 60.3289 94.7727C59.8074 87.0759 59.2166 78.3527 53.9231 72.2478C49.3284 66.9484 41.7737 65.2771 34.4675 63.6608C28.5496 62.3518 22.4304 60.9978 18.9207 57.8518C16.0461 55.2746 14.323 50.0603 12.4988 44.5393C11.5172 41.389 10.3734 38.2915 9.07196 35.2593C9.01126 35.1215 8.98847 34.97 9.00596 34.8204C9.02345 34.6709 9.08058 34.5287 9.17144 34.4086C9.2623 34.2885 9.38359 34.1949 9.52277 34.1374C9.66195 34.0799 9.81395 34.0607 9.96307 34.0816C36.8904 38.0249 62.1975 48.4522 85.1814 65.0733C103.666 78.4404 120.716 95.8286 135.857 116.754C146.784 131.952 156.275 148.133 164.206 165.087H91.6271C91.9869 162.404 92.4858 159.742 93.1218 157.11C94.8911 149.166 96.8972 140.163 93.1155 132.137ZM221.045 338.729H88.4763V319.966H221.045L221.045 338.729ZM232.085 188.052C232.097 222.757 226.438 257.231 215.333 290.112L208.296 310.966H101.226L94.1902 290.112C83.0842 257.232 77.425 222.757 77.4363 188.052V174.087H232.085L232.085 188.052ZM300.451 35.259C299.149 38.2911 298.005 41.3886 297.024 44.539C295.2 50.06 293.476 55.2743 290.601 57.852C287.091 60.998 280.972 62.352 275.054 63.661C267.749 65.2773 260.194 66.9486 255.599 72.2475C250.305 78.3525 249.714 87.0761 249.193 94.7729C248.808 100.468 248.444 105.847 246.395 108.969C243.683 113.102 238.038 116.085 232.578 118.971C226.053 122.418 219.307 125.984 216.408 132.138C212.625 140.163 214.631 149.166 216.401 157.11C217.037 159.742 217.536 162.404 217.895 165.087H174.159C170.7 157.425 166.025 147.949 159.998 137.517C164.01 130.823 168.548 123.825 173.664 116.753C188.807 95.8281 205.856 78.4399 224.34 65.0728C247.324 48.4517 272.631 38.0244 299.559 34.0811C299.708 34.0602 299.86 34.0794 299.999 34.1369C300.138 34.1944 300.26 34.288 300.351 34.408C300.441 34.5281 300.499 34.6703 300.516 34.8199C300.534 34.9694 300.511 35.1212 300.451 35.259Z" fill="white"/>
</svg>
