<svg width="57" height="57" viewBox="0 0 57 57" fill="none" xmlns="http://www.w3.org/2000/svg">
<mask id="path-1-outside-1_301_968" maskUnits="userSpaceOnUse" x="11.2366" y="6.12402" width="34" height="44" fill="black">
<rect fill="white" x="11.2366" y="6.12402" width="34" height="44"/>
<path d="M44.4573 19.8356C44.4257 19.7784 44.383 19.728 44.3317 19.6875C44.2804 19.6469 44.2216 19.617 44.1586 19.5994C42.737 19.2017 41.0681 19.4458 39.5801 20.269C38.6861 20.7553 37.9145 21.4389 37.3239 22.2678L37.3121 22.2144C36.8603 20.1761 36.8603 19.406 37.3121 17.3677L37.6506 15.8398C37.6666 15.7677 37.6662 15.693 37.6494 15.6211C37.6326 15.5492 37.6 15.482 37.5537 15.4244C37.5075 15.3668 37.449 15.3204 37.3824 15.2884C37.3158 15.2565 37.243 15.2399 37.1691 15.2399H31.032C30.9582 15.2399 30.8853 15.2565 30.8188 15.2884C30.7522 15.3203 30.6936 15.3668 30.6474 15.4244C30.6012 15.482 30.5685 15.5492 30.5518 15.6211C30.535 15.693 30.5346 15.7677 30.5505 15.8398L30.8891 17.3677C31.3408 19.406 31.3408 20.1761 30.8891 22.2144L30.5505 23.7423C30.5488 23.7503 30.548 23.7583 30.5466 23.7664C30.5451 23.7756 30.5432 23.7847 30.5421 23.794C30.5411 23.8032 30.5409 23.8123 30.5404 23.8215C30.5399 23.8307 30.5391 23.8398 30.5391 23.849C30.5391 23.8582 30.5399 23.8673 30.5404 23.8765C30.5409 23.8857 30.5411 23.8949 30.5421 23.9041C30.5432 23.9133 30.5451 23.9225 30.5466 23.9316C30.548 23.9397 30.5488 23.9477 30.5505 23.9558L30.8891 25.4837C31.3408 27.522 31.3408 28.292 30.8891 30.3303L30.6362 31.4717H26.2358L25.9828 30.3303C25.531 28.292 25.531 27.522 25.9828 25.4837L26.3214 23.9558C26.3231 23.9478 26.3239 23.9397 26.3253 23.9316C26.3269 23.9225 26.3288 23.9133 26.3298 23.9041C26.3309 23.8948 26.331 23.8857 26.3315 23.8765C26.332 23.8673 26.3329 23.8582 26.3329 23.849C26.3329 23.8398 26.332 23.8307 26.3315 23.8215C26.331 23.8124 26.3308 23.8031 26.3298 23.794C26.3288 23.7848 26.3269 23.7756 26.3253 23.7664C26.3239 23.7584 26.3231 23.7503 26.3214 23.7423L25.9828 22.2144C25.5311 20.1761 25.5311 19.406 25.9828 17.3677L26.3214 15.8398C26.3231 15.8318 26.3239 15.8237 26.3253 15.8157C26.3269 15.8065 26.3288 15.7974 26.3298 15.7881C26.3309 15.7788 26.331 15.7697 26.3315 15.7605C26.332 15.7513 26.3329 15.7423 26.3329 15.7331C26.3329 15.7239 26.332 15.7147 26.3315 15.7056C26.331 15.6964 26.3308 15.6872 26.3298 15.678C26.3288 15.6688 26.3269 15.6596 26.3253 15.6504C26.3239 15.6424 26.3231 15.6343 26.3214 15.6263L25.9828 14.0984C25.531 12.0601 25.531 11.2901 25.9828 9.25179L26.3214 7.72388C26.3374 7.6518 26.3369 7.57706 26.3202 7.50516C26.3034 7.43327 26.2707 7.36605 26.2245 7.30848C26.1783 7.25091 26.1197 7.20444 26.0532 7.17252C25.9866 7.14059 25.9137 7.12402 25.8399 7.12402H19.7028C19.629 7.12402 19.5561 7.14059 19.4895 7.17252C19.4229 7.20445 19.3644 7.25091 19.3182 7.30848C19.272 7.36606 19.2393 7.43327 19.2225 7.50516C19.2057 7.57706 19.2053 7.6518 19.2213 7.72388L19.5599 9.25179C20.0116 11.2901 20.0116 12.0601 19.5599 14.0984L19.541 14.1838C18.9409 13.2802 18.1287 12.5373 17.1754 12.02C15.6874 11.1968 14.0185 10.9528 12.5969 11.3504C12.5339 11.368 12.4751 11.398 12.4238 11.4385C12.3725 11.4791 12.3298 11.5294 12.2982 11.5866C12.2665 11.6439 12.2466 11.7068 12.2395 11.7718C12.2324 11.8368 12.2383 11.9025 12.2568 11.9652C12.6756 13.3809 13.7691 14.6648 15.2571 15.4878C16.2271 16.0359 17.3196 16.3305 18.4336 16.3441C18.7295 16.3436 19.0248 16.3186 19.3165 16.2695L19.5598 17.3677C20.0115 19.406 20.0115 20.1761 19.5598 22.2144L19.2213 23.7423C19.2195 23.7502 19.2187 23.7583 19.2174 23.7664C19.2158 23.7756 19.2139 23.7847 19.2129 23.7939C19.2118 23.8032 19.2116 23.8123 19.2111 23.8215C19.2106 23.8307 19.2098 23.8398 19.2098 23.849C19.2098 23.8582 19.2106 23.8673 19.2111 23.8765C19.2116 23.8856 19.2118 23.8949 19.2129 23.904C19.2139 23.9132 19.2158 23.9224 19.2174 23.9316C19.2187 23.9396 19.2195 23.9477 19.2213 23.9557L19.5598 25.4836C20.0116 27.5219 20.0116 28.292 19.5598 30.3303L19.2556 31.7034C16.694 33.5111 15.2866 35.9045 15.2866 38.467C15.2866 41.1415 16.8117 43.6227 19.5809 45.4537C19.7767 45.5808 19.9184 45.776 19.9785 46.0015C20.0386 46.2271 20.0129 46.4669 19.9063 46.6746L19.0027 48.4126C18.9636 48.4877 18.9445 48.5717 18.9473 48.6564C18.9502 48.7411 18.9747 48.8236 19.0187 48.896C19.0627 48.9684 19.1246 49.0283 19.1984 49.0698C19.2722 49.1114 19.3555 49.1332 19.4402 49.1332H37.5122C37.597 49.1332 37.6803 49.1114 37.7541 49.0698C37.8279 49.0283 37.8898 48.9684 37.9338 48.896C37.9778 48.8236 38.0023 48.7411 38.0051 48.6564C38.0079 48.5717 37.9889 48.4877 37.9498 48.4126L37.0463 46.6746C36.9396 46.4669 36.9139 46.2271 36.974 46.0015C37.0341 45.776 37.1758 45.5808 37.3717 45.4537C40.1408 43.6227 41.6658 41.1414 41.6658 38.467C41.6658 35.873 40.2233 33.4526 37.6017 31.6374L37.3121 30.3302C36.8603 28.2919 36.8603 27.5218 37.3121 25.4836L37.5228 24.5325C37.7873 24.5725 38.0545 24.5927 38.322 24.5931C39.436 24.5794 40.5285 24.2849 41.4984 23.7368C42.9864 22.9137 44.08 21.6298 44.4987 20.2142C44.5173 20.1515 44.5231 20.0857 44.516 20.0207C44.5089 19.9557 44.489 19.8928 44.4573 19.8356ZM31.8521 17.1543L31.6465 16.2262H36.5548L36.3491 17.1543C35.8685 19.3228 35.8685 20.2592 36.3491 22.4278L36.5548 23.3558H31.6465L31.8521 22.4278C32.3326 20.2592 32.3327 19.3228 31.8521 17.1543ZM31.8521 25.2702L31.6465 24.3421H36.5548L36.3491 25.2702C35.8685 27.4387 35.8685 28.3751 36.3491 30.5436L36.5548 31.4716H31.6465L31.8521 30.5436C32.3326 28.3751 32.3327 27.4387 31.8521 25.2702ZM20.5229 25.2702L20.3173 24.3421H25.2255L25.0199 25.2702C24.5393 27.4387 24.5393 28.3751 25.0199 30.5436L25.2255 31.4716H20.3172L20.5228 30.5436C21.0034 28.3751 21.0034 27.4387 20.5229 25.2702ZM20.5229 17.1543L20.3173 16.2262H25.2255L25.0199 17.1543C24.5393 19.3228 24.5393 20.2592 25.0199 22.4278L25.2255 23.3558H20.3172L20.5228 22.4278C21.0034 20.2592 21.0034 19.3228 20.5229 17.1543ZM20.5229 9.03844L20.3173 8.11039H25.2255L25.0199 9.03844C24.5393 11.2069 24.5393 12.1434 25.0199 14.3119L25.2255 15.2399H20.3172L20.5228 14.3119C21.0034 12.1434 21.0034 11.2069 20.5229 9.03844ZM15.7346 14.6247C14.656 14.0281 13.8255 13.1598 13.3905 12.1908C14.4422 12.044 15.6193 12.2864 16.698 12.8831C17.7766 13.4796 18.6071 14.3481 19.0421 15.3171C17.9901 15.4635 16.8131 15.2214 15.7346 14.6247ZM40.6795 38.467C40.6795 40.7994 39.3116 42.9885 36.8277 44.631C36.4281 44.8921 36.1398 45.2923 36.0185 45.7539C35.8972 46.2155 35.9516 46.7058 36.1711 47.1296L36.7001 48.1469H20.2525L20.7814 47.1296C21.001 46.7058 21.0554 46.2156 20.9341 45.7539C20.8128 45.2923 20.5244 44.8922 20.1249 44.6311C17.641 42.9886 16.273 40.7995 16.273 38.467C16.273 36.2114 17.5584 34.0823 19.8968 32.458H37.0557C39.3941 34.0823 40.6795 36.2114 40.6795 38.467ZM41.021 22.8738C39.9423 23.4704 38.7654 23.7128 37.7135 23.566C38.1484 22.5971 38.9789 21.7287 40.0576 21.132C41.1363 20.5354 42.3131 20.2931 43.3651 20.4398C42.9301 21.4087 42.0996 22.2771 41.021 22.8738Z"/>
</mask>
<path d="M44.4573 19.8356C44.4257 19.7784 44.383 19.728 44.3317 19.6875C44.2804 19.6469 44.2216 19.617 44.1586 19.5994C42.737 19.2017 41.0681 19.4458 39.5801 20.269C38.6861 20.7553 37.9145 21.4389 37.3239 22.2678L37.3121 22.2144C36.8603 20.1761 36.8603 19.406 37.3121 17.3677L37.6506 15.8398C37.6666 15.7677 37.6662 15.693 37.6494 15.6211C37.6326 15.5492 37.6 15.482 37.5537 15.4244C37.5075 15.3668 37.449 15.3204 37.3824 15.2884C37.3158 15.2565 37.243 15.2399 37.1691 15.2399H31.032C30.9582 15.2399 30.8853 15.2565 30.8188 15.2884C30.7522 15.3203 30.6936 15.3668 30.6474 15.4244C30.6012 15.482 30.5685 15.5492 30.5518 15.6211C30.535 15.693 30.5346 15.7677 30.5505 15.8398L30.8891 17.3677C31.3408 19.406 31.3408 20.1761 30.8891 22.2144L30.5505 23.7423C30.5488 23.7503 30.548 23.7583 30.5466 23.7664C30.5451 23.7756 30.5432 23.7847 30.5421 23.794C30.5411 23.8032 30.5409 23.8123 30.5404 23.8215C30.5399 23.8307 30.5391 23.8398 30.5391 23.849C30.5391 23.8582 30.5399 23.8673 30.5404 23.8765C30.5409 23.8857 30.5411 23.8949 30.5421 23.9041C30.5432 23.9133 30.5451 23.9225 30.5466 23.9316C30.548 23.9397 30.5488 23.9477 30.5505 23.9558L30.8891 25.4837C31.3408 27.522 31.3408 28.292 30.8891 30.3303L30.6362 31.4717H26.2358L25.9828 30.3303C25.531 28.292 25.531 27.522 25.9828 25.4837L26.3214 23.9558C26.3231 23.9478 26.3239 23.9397 26.3253 23.9316C26.3269 23.9225 26.3288 23.9133 26.3298 23.9041C26.3309 23.8948 26.331 23.8857 26.3315 23.8765C26.332 23.8673 26.3329 23.8582 26.3329 23.849C26.3329 23.8398 26.332 23.8307 26.3315 23.8215C26.331 23.8124 26.3308 23.8031 26.3298 23.794C26.3288 23.7848 26.3269 23.7756 26.3253 23.7664C26.3239 23.7584 26.3231 23.7503 26.3214 23.7423L25.9828 22.2144C25.5311 20.1761 25.5311 19.406 25.9828 17.3677L26.3214 15.8398C26.3231 15.8318 26.3239 15.8237 26.3253 15.8157C26.3269 15.8065 26.3288 15.7974 26.3298 15.7881C26.3309 15.7788 26.331 15.7697 26.3315 15.7605C26.332 15.7513 26.3329 15.7423 26.3329 15.7331C26.3329 15.7239 26.332 15.7147 26.3315 15.7056C26.331 15.6964 26.3308 15.6872 26.3298 15.678C26.3288 15.6688 26.3269 15.6596 26.3253 15.6504C26.3239 15.6424 26.3231 15.6343 26.3214 15.6263L25.9828 14.0984C25.531 12.0601 25.531 11.2901 25.9828 9.25179L26.3214 7.72388C26.3374 7.6518 26.3369 7.57706 26.3202 7.50516C26.3034 7.43327 26.2707 7.36605 26.2245 7.30848C26.1783 7.25091 26.1197 7.20444 26.0532 7.17252C25.9866 7.14059 25.9137 7.12402 25.8399 7.12402H19.7028C19.629 7.12402 19.5561 7.14059 19.4895 7.17252C19.4229 7.20445 19.3644 7.25091 19.3182 7.30848C19.272 7.36606 19.2393 7.43327 19.2225 7.50516C19.2057 7.57706 19.2053 7.6518 19.2213 7.72388L19.5599 9.25179C20.0116 11.2901 20.0116 12.0601 19.5599 14.0984L19.541 14.1838C18.9409 13.2802 18.1287 12.5373 17.1754 12.02C15.6874 11.1968 14.0185 10.9528 12.5969 11.3504C12.5339 11.368 12.4751 11.398 12.4238 11.4385C12.3725 11.4791 12.3298 11.5294 12.2982 11.5866C12.2665 11.6439 12.2466 11.7068 12.2395 11.7718C12.2324 11.8368 12.2383 11.9025 12.2568 11.9652C12.6756 13.3809 13.7691 14.6648 15.2571 15.4878C16.2271 16.0359 17.3196 16.3305 18.4336 16.3441C18.7295 16.3436 19.0248 16.3186 19.3165 16.2695L19.5598 17.3677C20.0115 19.406 20.0115 20.1761 19.5598 22.2144L19.2213 23.7423C19.2195 23.7502 19.2187 23.7583 19.2174 23.7664C19.2158 23.7756 19.2139 23.7847 19.2129 23.7939C19.2118 23.8032 19.2116 23.8123 19.2111 23.8215C19.2106 23.8307 19.2098 23.8398 19.2098 23.849C19.2098 23.8582 19.2106 23.8673 19.2111 23.8765C19.2116 23.8856 19.2118 23.8949 19.2129 23.904C19.2139 23.9132 19.2158 23.9224 19.2174 23.9316C19.2187 23.9396 19.2195 23.9477 19.2213 23.9557L19.5598 25.4836C20.0116 27.5219 20.0116 28.292 19.5598 30.3303L19.2556 31.7034C16.694 33.5111 15.2866 35.9045 15.2866 38.467C15.2866 41.1415 16.8117 43.6227 19.5809 45.4537C19.7767 45.5808 19.9184 45.776 19.9785 46.0015C20.0386 46.2271 20.0129 46.4669 19.9063 46.6746L19.0027 48.4126C18.9636 48.4877 18.9445 48.5717 18.9473 48.6564C18.9502 48.7411 18.9747 48.8236 19.0187 48.896C19.0627 48.9684 19.1246 49.0283 19.1984 49.0698C19.2722 49.1114 19.3555 49.1332 19.4402 49.1332H37.5122C37.597 49.1332 37.6803 49.1114 37.7541 49.0698C37.8279 49.0283 37.8898 48.9684 37.9338 48.896C37.9778 48.8236 38.0023 48.7411 38.0051 48.6564C38.0079 48.5717 37.9889 48.4877 37.9498 48.4126L37.0463 46.6746C36.9396 46.4669 36.9139 46.2271 36.974 46.0015C37.0341 45.776 37.1758 45.5808 37.3717 45.4537C40.1408 43.6227 41.6658 41.1414 41.6658 38.467C41.6658 35.873 40.2233 33.4526 37.6017 31.6374L37.3121 30.3302C36.8603 28.2919 36.8603 27.5218 37.3121 25.4836L37.5228 24.5325C37.7873 24.5725 38.0545 24.5927 38.322 24.5931C39.436 24.5794 40.5285 24.2849 41.4984 23.7368C42.9864 22.9137 44.08 21.6298 44.4987 20.2142C44.5173 20.1515 44.5231 20.0857 44.516 20.0207C44.5089 19.9557 44.489 19.8928 44.4573 19.8356ZM31.8521 17.1543L31.6465 16.2262H36.5548L36.3491 17.1543C35.8685 19.3228 35.8685 20.2592 36.3491 22.4278L36.5548 23.3558H31.6465L31.8521 22.4278C32.3326 20.2592 32.3327 19.3228 31.8521 17.1543ZM31.8521 25.2702L31.6465 24.3421H36.5548L36.3491 25.2702C35.8685 27.4387 35.8685 28.3751 36.3491 30.5436L36.5548 31.4716H31.6465L31.8521 30.5436C32.3326 28.3751 32.3327 27.4387 31.8521 25.2702ZM20.5229 25.2702L20.3173 24.3421H25.2255L25.0199 25.2702C24.5393 27.4387 24.5393 28.3751 25.0199 30.5436L25.2255 31.4716H20.3172L20.5228 30.5436C21.0034 28.3751 21.0034 27.4387 20.5229 25.2702ZM20.5229 17.1543L20.3173 16.2262H25.2255L25.0199 17.1543C24.5393 19.3228 24.5393 20.2592 25.0199 22.4278L25.2255 23.3558H20.3172L20.5228 22.4278C21.0034 20.2592 21.0034 19.3228 20.5229 17.1543ZM20.5229 9.03844L20.3173 8.11039H25.2255L25.0199 9.03844C24.5393 11.2069 24.5393 12.1434 25.0199 14.3119L25.2255 15.2399H20.3172L20.5228 14.3119C21.0034 12.1434 21.0034 11.2069 20.5229 9.03844ZM15.7346 14.6247C14.656 14.0281 13.8255 13.1598 13.3905 12.1908C14.4422 12.044 15.6193 12.2864 16.698 12.8831C17.7766 13.4796 18.6071 14.3481 19.0421 15.3171C17.9901 15.4635 16.8131 15.2214 15.7346 14.6247ZM40.6795 38.467C40.6795 40.7994 39.3116 42.9885 36.8277 44.631C36.4281 44.8921 36.1398 45.2923 36.0185 45.7539C35.8972 46.2155 35.9516 46.7058 36.1711 47.1296L36.7001 48.1469H20.2525L20.7814 47.1296C21.001 46.7058 21.0554 46.2156 20.9341 45.7539C20.8128 45.2923 20.5244 44.8922 20.1249 44.6311C17.641 42.9886 16.273 40.7995 16.273 38.467C16.273 36.2114 17.5584 34.0823 19.8968 32.458H37.0557C39.3941 34.0823 40.6795 36.2114 40.6795 38.467ZM41.021 22.8738C39.9423 23.4704 38.7654 23.7128 37.7135 23.566C38.1484 22.5971 38.9789 21.7287 40.0576 21.132C41.1363 20.5354 42.3131 20.2931 43.3651 20.4398C42.9301 21.4087 42.0996 22.2771 41.021 22.8738Z" fill="#285A43"/>
<path d="M44.4573 19.8356C44.4257 19.7784 44.383 19.728 44.3317 19.6875C44.2804 19.6469 44.2216 19.617 44.1586 19.5994C42.737 19.2017 41.0681 19.4458 39.5801 20.269C38.6861 20.7553 37.9145 21.4389 37.3239 22.2678L37.3121 22.2144C36.8603 20.1761 36.8603 19.406 37.3121 17.3677L37.6506 15.8398C37.6666 15.7677 37.6662 15.693 37.6494 15.6211C37.6326 15.5492 37.6 15.482 37.5537 15.4244C37.5075 15.3668 37.449 15.3204 37.3824 15.2884C37.3158 15.2565 37.243 15.2399 37.1691 15.2399H31.032C30.9582 15.2399 30.8853 15.2565 30.8188 15.2884C30.7522 15.3203 30.6936 15.3668 30.6474 15.4244C30.6012 15.482 30.5685 15.5492 30.5518 15.6211C30.535 15.693 30.5346 15.7677 30.5505 15.8398L30.8891 17.3677C31.3408 19.406 31.3408 20.1761 30.8891 22.2144L30.5505 23.7423C30.5488 23.7503 30.548 23.7583 30.5466 23.7664C30.5451 23.7756 30.5432 23.7847 30.5421 23.794C30.5411 23.8032 30.5409 23.8123 30.5404 23.8215C30.5399 23.8307 30.5391 23.8398 30.5391 23.849C30.5391 23.8582 30.5399 23.8673 30.5404 23.8765C30.5409 23.8857 30.5411 23.8949 30.5421 23.9041C30.5432 23.9133 30.5451 23.9225 30.5466 23.9316C30.548 23.9397 30.5488 23.9477 30.5505 23.9558L30.8891 25.4837C31.3408 27.522 31.3408 28.292 30.8891 30.3303L30.6362 31.4717H26.2358L25.9828 30.3303C25.531 28.292 25.531 27.522 25.9828 25.4837L26.3214 23.9558C26.3231 23.9478 26.3239 23.9397 26.3253 23.9316C26.3269 23.9225 26.3288 23.9133 26.3298 23.9041C26.3309 23.8948 26.331 23.8857 26.3315 23.8765C26.332 23.8673 26.3329 23.8582 26.3329 23.849C26.3329 23.8398 26.332 23.8307 26.3315 23.8215C26.331 23.8124 26.3308 23.8031 26.3298 23.794C26.3288 23.7848 26.3269 23.7756 26.3253 23.7664C26.3239 23.7584 26.3231 23.7503 26.3214 23.7423L25.9828 22.2144C25.5311 20.1761 25.5311 19.406 25.9828 17.3677L26.3214 15.8398C26.3231 15.8318 26.3239 15.8237 26.3253 15.8157C26.3269 15.8065 26.3288 15.7974 26.3298 15.7881C26.3309 15.7788 26.331 15.7697 26.3315 15.7605C26.332 15.7513 26.3329 15.7423 26.3329 15.7331C26.3329 15.7239 26.332 15.7147 26.3315 15.7056C26.331 15.6964 26.3308 15.6872 26.3298 15.678C26.3288 15.6688 26.3269 15.6596 26.3253 15.6504C26.3239 15.6424 26.3231 15.6343 26.3214 15.6263L25.9828 14.0984C25.531 12.0601 25.531 11.2901 25.9828 9.25179L26.3214 7.72388C26.3374 7.6518 26.3369 7.57706 26.3202 7.50516C26.3034 7.43327 26.2707 7.36605 26.2245 7.30848C26.1783 7.25091 26.1197 7.20444 26.0532 7.17252C25.9866 7.14059 25.9137 7.12402 25.8399 7.12402H19.7028C19.629 7.12402 19.5561 7.14059 19.4895 7.17252C19.4229 7.20445 19.3644 7.25091 19.3182 7.30848C19.272 7.36606 19.2393 7.43327 19.2225 7.50516C19.2057 7.57706 19.2053 7.6518 19.2213 7.72388L19.5599 9.25179C20.0116 11.2901 20.0116 12.0601 19.5599 14.0984L19.541 14.1838C18.9409 13.2802 18.1287 12.5373 17.1754 12.02C15.6874 11.1968 14.0185 10.9528 12.5969 11.3504C12.5339 11.368 12.4751 11.398 12.4238 11.4385C12.3725 11.4791 12.3298 11.5294 12.2982 11.5866C12.2665 11.6439 12.2466 11.7068 12.2395 11.7718C12.2324 11.8368 12.2383 11.9025 12.2568 11.9652C12.6756 13.3809 13.7691 14.6648 15.2571 15.4878C16.2271 16.0359 17.3196 16.3305 18.4336 16.3441C18.7295 16.3436 19.0248 16.3186 19.3165 16.2695L19.5598 17.3677C20.0115 19.406 20.0115 20.1761 19.5598 22.2144L19.2213 23.7423C19.2195 23.7502 19.2187 23.7583 19.2174 23.7664C19.2158 23.7756 19.2139 23.7847 19.2129 23.7939C19.2118 23.8032 19.2116 23.8123 19.2111 23.8215C19.2106 23.8307 19.2098 23.8398 19.2098 23.849C19.2098 23.8582 19.2106 23.8673 19.2111 23.8765C19.2116 23.8856 19.2118 23.8949 19.2129 23.904C19.2139 23.9132 19.2158 23.9224 19.2174 23.9316C19.2187 23.9396 19.2195 23.9477 19.2213 23.9557L19.5598 25.4836C20.0116 27.5219 20.0116 28.292 19.5598 30.3303L19.2556 31.7034C16.694 33.5111 15.2866 35.9045 15.2866 38.467C15.2866 41.1415 16.8117 43.6227 19.5809 45.4537C19.7767 45.5808 19.9184 45.776 19.9785 46.0015C20.0386 46.2271 20.0129 46.4669 19.9063 46.6746L19.0027 48.4126C18.9636 48.4877 18.9445 48.5717 18.9473 48.6564C18.9502 48.7411 18.9747 48.8236 19.0187 48.896C19.0627 48.9684 19.1246 49.0283 19.1984 49.0698C19.2722 49.1114 19.3555 49.1332 19.4402 49.1332H37.5122C37.597 49.1332 37.6803 49.1114 37.7541 49.0698C37.8279 49.0283 37.8898 48.9684 37.9338 48.896C37.9778 48.8236 38.0023 48.7411 38.0051 48.6564C38.0079 48.5717 37.9889 48.4877 37.9498 48.4126L37.0463 46.6746C36.9396 46.4669 36.9139 46.2271 36.974 46.0015C37.0341 45.776 37.1758 45.5808 37.3717 45.4537C40.1408 43.6227 41.6658 41.1414 41.6658 38.467C41.6658 35.873 40.2233 33.4526 37.6017 31.6374L37.3121 30.3302C36.8603 28.2919 36.8603 27.5218 37.3121 25.4836L37.5228 24.5325C37.7873 24.5725 38.0545 24.5927 38.322 24.5931C39.436 24.5794 40.5285 24.2849 41.4984 23.7368C42.9864 22.9137 44.08 21.6298 44.4987 20.2142C44.5173 20.1515 44.5231 20.0857 44.516 20.0207C44.5089 19.9557 44.489 19.8928 44.4573 19.8356ZM31.8521 17.1543L31.6465 16.2262H36.5548L36.3491 17.1543C35.8685 19.3228 35.8685 20.2592 36.3491 22.4278L36.5548 23.3558H31.6465L31.8521 22.4278C32.3326 20.2592 32.3327 19.3228 31.8521 17.1543ZM31.8521 25.2702L31.6465 24.3421H36.5548L36.3491 25.2702C35.8685 27.4387 35.8685 28.3751 36.3491 30.5436L36.5548 31.4716H31.6465L31.8521 30.5436C32.3326 28.3751 32.3327 27.4387 31.8521 25.2702ZM20.5229 25.2702L20.3173 24.3421H25.2255L25.0199 25.2702C24.5393 27.4387 24.5393 28.3751 25.0199 30.5436L25.2255 31.4716H20.3172L20.5228 30.5436C21.0034 28.3751 21.0034 27.4387 20.5229 25.2702ZM20.5229 17.1543L20.3173 16.2262H25.2255L25.0199 17.1543C24.5393 19.3228 24.5393 20.2592 25.0199 22.4278L25.2255 23.3558H20.3172L20.5228 22.4278C21.0034 20.2592 21.0034 19.3228 20.5229 17.1543ZM20.5229 9.03844L20.3173 8.11039H25.2255L25.0199 9.03844C24.5393 11.2069 24.5393 12.1434 25.0199 14.3119L25.2255 15.2399H20.3172L20.5228 14.3119C21.0034 12.1434 21.0034 11.2069 20.5229 9.03844ZM15.7346 14.6247C14.656 14.0281 13.8255 13.1598 13.3905 12.1908C14.4422 12.044 15.6193 12.2864 16.698 12.8831C17.7766 13.4796 18.6071 14.3481 19.0421 15.3171C17.9901 15.4635 16.8131 15.2214 15.7346 14.6247ZM40.6795 38.467C40.6795 40.7994 39.3116 42.9885 36.8277 44.631C36.4281 44.8921 36.1398 45.2923 36.0185 45.7539C35.8972 46.2155 35.9516 46.7058 36.1711 47.1296L36.7001 48.1469H20.2525L20.7814 47.1296C21.001 46.7058 21.0554 46.2156 20.9341 45.7539C20.8128 45.2923 20.5244 44.8922 20.1249 44.6311C17.641 42.9886 16.273 40.7995 16.273 38.467C16.273 36.2114 17.5584 34.0823 19.8968 32.458H37.0557C39.3941 34.0823 40.6795 36.2114 40.6795 38.467ZM41.021 22.8738C39.9423 23.4704 38.7654 23.7128 37.7135 23.566C38.1484 22.5971 38.9789 21.7287 40.0576 21.132C41.1363 20.5354 42.3131 20.2931 43.3651 20.4398C42.9301 21.4087 42.0996 22.2771 41.021 22.8738Z" stroke="#285A43" stroke-width="0.890645" mask="url(#path-1-outside-1_301_968)"/>
<path d="M34.3722 45.0523H22.5805C22.3906 45.0523 22.2085 45.1277 22.0743 45.262C21.9401 45.3962 21.8646 45.5783 21.8646 45.7681C21.8646 45.958 21.9401 46.14 22.0743 46.2743C22.2085 46.4085 22.3906 46.4839 22.5805 46.4839H34.3722C34.5621 46.4839 34.7441 46.4085 34.8784 46.2743C35.0126 46.14 35.088 45.958 35.088 45.7681C35.088 45.5783 35.0126 45.3962 34.8784 45.262C34.7441 45.1277 34.5621 45.0523 34.3722 45.0523Z" fill="#285A43" stroke="#285A43" stroke-width="0.445322"/>
</svg>
