<svg width="57" height="57" viewBox="0 0 57 57" fill="none" xmlns="http://www.w3.org/2000/svg">
<path d="M21.9606 11.9103L21.9606 11.9103C22.0271 11.9768 22.0798 12.0557 22.1158 12.1426C22.1518 12.2294 22.1703 12.3225 22.1703 12.4165C22.1703 12.5105 22.1517 12.6036 22.1158 12.6905C22.0798 12.7773 22.0271 12.8562 21.9606 12.9227C21.8941 12.9892 21.8152 13.0419 21.7284 13.0779C21.6415 13.1138 21.5484 13.1324 21.4544 13.1324C21.3604 13.1324 21.2673 13.1138 21.1805 13.0779C21.0936 13.0419 21.0147 12.9892 20.9482 12.9227L21.9606 11.9103ZM21.9606 11.9103L20.841 10.7908L20.841 10.7908C20.7068 10.6565 20.5247 10.5811 20.3349 10.5811C20.145 10.5811 19.9629 10.6565 19.8287 10.7908C19.6944 10.925 19.619 11.1071 19.619 11.297C19.619 11.4868 19.6944 11.6689 19.8287 11.8031C19.8287 11.8031 19.8287 11.8031 19.8287 11.8031L20.9482 12.9227L21.9606 11.9103Z" fill="#285A43" stroke="#285A43" stroke-width="0.445322"/>
<path d="M33.7232 11.9104L33.7233 11.9104L34.842 10.7914C34.9081 10.7244 34.9868 10.671 35.0736 10.6345C35.1607 10.5978 35.2542 10.5787 35.3487 10.5783C35.4432 10.5779 35.5368 10.5962 35.6242 10.6322C35.7116 10.6682 35.7909 10.7211 35.8578 10.7879L35.7003 10.9454L35.8578 10.7879C35.9246 10.8547 35.9775 10.9341 36.0135 11.0215C36.0495 11.1088 36.0678 11.2025 36.0674 11.297C36.0671 11.3914 36.048 11.4849 36.0113 11.572C35.9747 11.6588 35.9214 11.7375 35.8544 11.8036L34.7358 12.9224C34.7358 12.9224 34.7358 12.9225 34.7358 12.9225L33.7232 11.9104ZM33.7232 11.9104C33.6232 12.0105 33.555 12.138 33.5274 12.2769C33.4998 12.4157 33.514 12.5596 33.5681 12.6904C33.6223 12.8212 33.714 12.933 33.8317 13.0117C33.9494 13.0903 34.0878 13.1323 34.2294 13.1323L33.7232 11.9104Z" fill="#285A43" stroke="#285A43" stroke-width="0.445322"/>
<path d="M36.8752 19.5198H39.24C39.4299 19.5198 39.6119 19.4444 39.7462 19.3101C39.8804 19.1759 39.9558 18.9938 39.9558 18.804C39.9558 18.6141 39.8804 18.4321 39.7462 18.2978C39.6119 18.1636 39.4299 18.0882 39.24 18.0882H36.8752C36.6854 18.0882 36.5033 18.1636 36.3691 18.2978C36.2348 18.4321 36.1594 18.6141 36.1594 18.804C36.1594 18.9938 36.2348 19.1759 36.3691 19.3101C36.5033 19.4444 36.6854 19.5198 36.8752 19.5198Z" fill="#285A43" stroke="#285A43" stroke-width="0.445322"/>
<path d="M16.4439 19.5198H18.8086C18.9985 19.5198 19.1806 19.4444 19.3148 19.3101C19.449 19.1759 19.5245 18.9938 19.5245 18.804C19.5245 18.6141 19.449 18.4321 19.3148 18.2978C19.1806 18.1636 18.9985 18.0882 18.8086 18.0882H16.4439C16.254 18.0882 16.0719 18.1636 15.9377 18.2978C15.8035 18.4321 15.728 18.6141 15.728 18.804C15.728 18.9938 15.8035 19.1759 15.9377 19.3101C16.0719 19.4444 16.254 19.5198 16.4439 19.5198Z" fill="#285A43" stroke="#285A43" stroke-width="0.445322"/>
<path d="M27.8419 10.4865C28.0318 10.4865 28.2138 10.4111 28.3481 10.2768C28.4823 10.1426 28.5577 9.96052 28.5577 9.77068V7.40591C28.5577 7.21606 28.4823 7.03399 28.3481 6.89975C28.2138 6.76551 28.0318 6.69009 27.8419 6.69009C27.6521 6.69009 27.47 6.76551 27.3358 6.89975C27.2015 7.03399 27.1261 7.21606 27.1261 7.40591V9.77068C27.1261 9.96052 27.2015 10.1426 27.3358 10.2768C27.47 10.4111 27.6521 10.4865 27.8419 10.4865Z" fill="#285A43" stroke="#285A43" stroke-width="0.445322"/>
<path d="M14.0117 28.2937L14.2106 28.3937L14.0117 28.2937C13.9615 28.3934 13.9354 28.5035 13.9355 28.6151V48.8514C13.9355 49.0412 14.0109 49.2233 14.1451 49.3575H14.1451C14.2794 49.4918 14.4614 49.5672 14.6513 49.5672H41.0325C41.2224 49.5672 41.4045 49.4918 41.5387 49.3575C41.673 49.2233 41.7484 49.0412 41.7484 48.8514V28.6151C41.7484 28.5035 41.7223 28.3934 41.6722 28.2937C41.622 28.194 41.5493 28.1073 41.4598 28.0407L34.2223 22.6575C34.8785 21.5728 35.2479 20.3376 35.294 19.0684C35.3426 17.7297 35.0296 16.4026 34.3881 15.2267C33.7466 14.0507 32.8001 13.0693 31.6482 12.3855C30.4963 11.7017 29.1815 11.3409 27.8419 11.3409C26.5023 11.3409 25.1875 11.7017 24.0356 12.3855C22.8837 13.0693 21.9372 14.0507 21.2957 15.2267C20.6542 16.4026 20.3413 17.7297 20.3899 19.0684C20.4359 20.3376 20.8053 21.5728 21.4615 22.6575L14.2241 28.0407C14.1345 28.1073 14.0618 28.194 14.0117 28.2937ZM22.6154 21.7993C22.0916 20.8896 21.8153 19.8568 21.8166 18.8042L21.8166 18.8039C21.816 17.87 22.0325 16.9488 22.4491 16.1129C22.8656 15.2771 23.4707 14.5495 24.2166 13.9877C24.9625 13.4258 25.8288 13.045 26.7472 12.8753C27.6655 12.7056 28.6107 12.7517 29.5081 13.01C30.4056 13.2682 31.2307 13.7316 31.9184 14.3634C32.6061 14.9952 33.1375 15.7782 33.4707 16.6506C33.8038 17.5231 33.9297 18.461 33.8382 19.3903C33.7547 20.2396 33.4918 21.0604 33.068 21.799L28.2691 18.2296L28.2691 18.2296C28.1456 18.1378 27.9958 18.0882 27.8419 18.0882C27.688 18.0882 27.5382 18.1378 27.4147 18.2296L27.4147 18.2296L22.6154 21.7993ZM40.3167 48.1355H15.3671V28.9748L27.8419 19.6961L40.3167 28.9748L40.3167 48.1355Z" fill="#285A43" stroke="#285A43" stroke-width="0.445322"/>
<path d="M22.0549 31.7884H22.0551C23.334 31.7898 24.5842 32.1676 25.6497 32.8748C26.5803 33.4925 27.3341 34.3375 27.8418 35.3264C28.3495 34.3375 29.1033 33.4925 30.034 32.8748C31.0995 32.1676 32.3497 31.7898 33.6285 31.7884L33.6288 31.7884L34.0707 31.7884C34.2605 31.7884 34.4426 31.8639 34.5768 31.9981C34.7111 32.1323 34.7865 32.3144 34.7865 32.5043V32.9462V32.9464C34.7844 34.6611 34.1059 36.3057 32.8983 37.523C31.7426 38.6879 30.1917 39.3715 28.5577 39.4419V42.6217C30.6226 42.7417 32.6232 43.3911 34.3664 44.5089M22.0549 31.7884L34.247 44.6969M22.0549 31.7884H21.613C21.4231 31.7884 21.2411 31.8639 21.1068 31.9981C20.9726 32.1323 20.8972 32.3144 20.8972 32.5043L20.8972 32.9462L20.8972 32.9464C20.8992 34.6611 21.5777 36.3057 22.7853 37.523C23.941 38.6879 25.492 39.3715 27.126 39.4419V42.6217C25.0608 42.7418 23.0598 43.3913 21.3164 44.5094L21.3163 44.5095C21.1565 44.6121 21.0441 44.774 21.0037 44.9595C20.9633 45.145 20.9983 45.3389 21.1009 45.4987M22.0549 31.7884L21.1009 45.4987M34.3664 44.5089C34.3667 44.5091 34.367 44.5093 34.3672 44.5094L34.247 44.6969M34.3664 44.5089C34.3661 44.5087 34.3658 44.5085 34.3654 44.5083L34.247 44.6969M34.3664 44.5089C34.4462 44.5591 34.5152 44.6246 34.5695 44.7016C34.6241 44.7789 34.6628 44.8662 34.6835 44.9586C34.7041 45.0509 34.7062 45.1464 34.6896 45.2396C34.6731 45.3328 34.6383 45.4217 34.5871 45.5014C34.536 45.581 34.4696 45.6497 34.3917 45.7034C34.3139 45.7572 34.2261 45.7951 34.1336 45.8147C34.041 45.8344 33.9455 45.8355 33.8525 45.818C33.76 45.8006 33.6718 45.7651 33.593 45.7136M34.247 44.6969C34.3023 44.7315 34.35 44.7768 34.3877 44.83C34.4253 44.8833 34.4519 44.9435 34.4661 45.0071C34.4803 45.0707 34.4818 45.1365 34.4704 45.2007C34.459 45.2649 34.435 45.3262 34.3998 45.381C34.3646 45.4359 34.3188 45.4832 34.2652 45.5203C34.2115 45.5573 34.1511 45.5834 34.0873 45.5969C34.0235 45.6105 33.9577 45.6112 33.8937 45.5992C33.8296 45.5871 33.7686 45.5625 33.7141 45.5267M33.593 45.7136C33.5934 45.7138 33.5937 45.714 33.594 45.7142L33.7141 45.5267M33.593 45.7136C31.8761 44.6148 29.8803 44.0309 27.8419 44.0309C25.8032 44.0309 23.8071 44.615 22.09 45.7141L33.7141 45.5267M33.593 45.7136C33.5926 45.7133 33.5922 45.7131 33.5918 45.7128L33.7141 45.5267M21.1009 45.4987C21.2035 45.6584 21.3653 45.7708 21.5508 45.8112L21.5982 45.5937L21.5508 45.8112C21.7362 45.8516 21.9301 45.8167 22.0897 45.7142L21.1009 45.4987C21.1009 45.4987 21.1009 45.4987 21.1009 45.4987ZM27.9649 35.5792C27.9218 35.669 27.8807 35.7599 27.8419 35.852C27.803 35.7599 27.7619 35.669 27.7188 35.5792L27.9649 35.5792ZM23.8157 36.5304C22.9321 35.6468 22.4073 34.4704 22.3369 33.2282C23.5791 33.2987 24.7555 33.8234 25.6391 34.707C26.5227 35.5906 27.0474 36.767 27.1179 38.0092C25.8757 37.9387 24.6993 37.414 23.8157 36.5304ZM30.0446 34.707C30.9282 33.8234 32.1045 33.2987 33.3468 33.2282C33.2763 34.4704 32.7515 35.6468 31.8679 36.5304C30.9843 37.414 29.8079 37.9387 28.5657 38.0092C28.6362 36.767 29.1609 35.5906 30.0446 34.707Z" fill="#285A43" stroke="#285A43" stroke-width="0.445322"/>
</svg>
