<svg width="57" height="57" viewBox="0 0 57 57" fill="none" xmlns="http://www.w3.org/2000/svg">
<path d="M35.6624 35.9824V35.9827C35.66 37.8351 34.9561 39.6178 33.6924 40.9722C32.476 42.276 30.8278 43.0897 29.0581 43.2653V46.7499C31.2547 46.8707 33.3839 47.5583 35.2377 48.7474L35.2378 48.7475C35.3169 48.7983 35.3852 48.8641 35.4389 48.9413C35.4925 49.0186 35.5304 49.1056 35.5504 49.1974C35.5704 49.2893 35.5721 49.3842 35.5554 49.4767C35.5388 49.5692 35.504 49.6575 35.4532 49.7366C35.4024 49.8157 35.3365 49.884 35.2593 49.9376C35.1821 49.9913 35.0951 50.0292 35.0032 50.0492C34.9114 50.0692 34.8165 50.0709 34.724 50.0542C34.6315 50.0375 34.5432 50.0028 34.4641 49.952C32.6366 48.7822 30.5122 48.1605 28.3423 48.1605C26.1725 48.1605 24.0481 48.7822 22.2206 49.952L35.6624 35.9824ZM35.6624 35.9824C35.6624 35.7925 35.587 35.6105 35.4527 35.4762M35.6624 35.9824L35.4527 35.4762M34.9463 35.2666L34.9466 35.2666C35.1364 35.2666 35.3185 35.342 35.4527 35.4762M34.9463 35.2666L35.4527 35.4762L35.2962 35.6328L35.4527 35.4762M34.9463 35.2666C33.4762 35.2684 32.0406 35.7122 30.826 36.5404C29.7547 37.2709 28.899 38.2706 28.3423 39.4349M34.9463 35.2666L28.3423 39.4349M28.3423 39.4349C27.7857 38.2706 26.93 37.2709 25.8587 36.5404C24.6441 35.7122 23.2085 35.2684 21.7383 35.2666H21.7381C21.5482 35.2666 21.3662 35.342 21.2319 35.4762C21.0977 35.6105 21.0223 35.7925 21.0222 35.9824L21.0223 35.9827C21.0247 37.8351 21.7285 39.6178 22.9922 40.9722C24.2086 42.276 25.8568 43.0897 27.6265 43.2653V46.7499C25.4299 46.8707 23.3007 47.5583 21.4469 48.7474L21.4468 48.7475C21.2871 48.8501 21.1747 49.0119 21.1343 49.1974C21.0939 49.3829 21.1288 49.5769 21.2314 49.7366C21.334 49.8963 21.4959 50.0088 21.6814 50.0492C21.8668 50.0895 22.0606 50.0546 22.2203 49.9522L28.3423 39.4349ZM30.785 38.425C31.7036 37.5064 32.8977 36.9185 34.1806 36.7484C34.0104 38.0312 33.4225 39.2254 32.5039 40.144C31.5853 41.0626 30.3912 41.6505 29.1083 41.8206C29.2785 40.5378 29.8664 39.3436 30.785 38.425ZM24.1807 40.144C23.2621 39.2254 22.6742 38.0312 22.5041 36.7484C23.7869 36.9185 24.9811 37.5064 25.8997 38.425C26.8183 39.3436 27.4062 40.5378 27.5763 41.8206C26.2935 41.6505 25.0993 41.0626 24.1807 40.144Z" fill="white" stroke="white" stroke-width="0.445322"/>
<path d="M28.3421 26.4363H28.3424C29.8265 26.4363 31.2772 25.9962 32.5112 25.1717C33.7452 24.3472 34.7069 23.1753 35.2749 21.8041C35.8428 20.433 35.9914 18.9243 35.7019 17.4687C35.4123 16.0131 34.6977 14.6761 33.6483 13.6267C32.5989 12.5773 31.2618 11.8626 29.8062 11.5731C28.3507 11.2836 26.8419 11.4322 25.4708 12.0001C24.0997 12.568 22.9278 13.5298 22.1033 14.7638C21.2787 15.9977 20.8387 17.4485 20.8387 18.9326L20.8387 18.9328C20.8409 20.9222 21.6322 22.8294 23.0389 24.2361C24.4455 25.6428 26.3528 26.4341 28.3421 26.4363ZM28.3425 12.8606C29.5434 12.8607 30.7173 13.2168 31.7158 13.884C32.7144 14.5512 33.4926 15.4995 33.9522 16.609C34.4118 17.7185 34.532 18.9394 34.2977 20.1173C34.0634 21.2952 33.4851 22.3771 32.6359 23.2263C31.7867 24.0755 30.7048 24.6538 29.5269 24.8881C28.3491 25.1223 27.1282 25.0021 26.0187 24.5425C24.9091 24.0829 23.9608 23.3047 23.2936 22.3061C22.6264 21.3076 22.2703 20.1337 22.2703 18.9328C22.2722 17.3229 22.9125 15.7795 24.0509 14.6411C25.1892 13.5028 26.7326 12.8625 28.3425 12.8606Z" fill="white" stroke="white" stroke-width="0.445322"/>
<path d="M34.268 25.8706L34.268 25.8706L35.3953 26.9978C35.4618 27.0643 35.5407 27.117 35.6275 27.153C35.7144 27.189 35.8075 27.2075 35.9015 27.2075C35.9955 27.2075 36.0886 27.189 36.1754 27.153C36.2623 27.117 36.3412 27.0643 36.4076 26.9978C36.4741 26.9314 36.5268 26.8525 36.5628 26.7656C36.5988 26.6787 36.6173 26.5857 36.6173 26.4917C36.6173 26.3977 36.5988 26.3046 36.5628 26.2177C36.5268 26.1309 36.4741 26.052 36.4076 25.9855L36.4076 25.9855L35.2803 24.8582C35.2803 24.8582 35.2803 24.8582 35.2803 24.8582C35.2138 24.7917 35.1349 24.739 35.0481 24.703C34.9612 24.6671 34.8682 24.6486 34.7741 24.6486C34.6801 24.6486 34.5871 24.6671 34.5002 24.703C34.4134 24.739 34.3344 24.7917 34.268 24.8582C34.2015 24.9247 34.1488 25.0036 34.1128 25.0905C34.0768 25.1773 34.0583 25.2704 34.0583 25.3644C34.0583 25.4584 34.0768 25.5515 34.1128 25.6383C34.1488 25.7252 34.2015 25.8041 34.268 25.8706Z" fill="white" stroke="white" stroke-width="0.445322"/>
<path d="M22.4168 11.9946L22.4168 11.9946L21.2895 10.8673C21.2895 10.8673 21.2895 10.8673 21.2895 10.8673C21.1552 10.7331 20.9731 10.6576 20.7833 10.6576C20.5934 10.6577 20.4114 10.7331 20.2771 10.8673C20.1429 11.0016 20.0675 11.1836 20.0675 11.3735C20.0675 11.5634 20.1429 11.7454 20.2771 11.8797L20.2771 11.8797L21.4044 13.007C21.4044 13.007 21.4044 13.007 21.4044 13.007C21.4709 13.0734 21.5498 13.1262 21.6367 13.1621C21.7235 13.1981 21.8166 13.2166 21.9106 13.2166C22.0046 13.2166 22.0977 13.1981 22.1846 13.1621C22.2714 13.1262 22.3503 13.0734 22.4168 13.007L22.2594 12.8495L22.4168 13.007C22.4833 12.9405 22.536 12.8616 22.572 12.7747C22.6079 12.6879 22.6265 12.5948 22.6265 12.5008C22.6265 12.4068 22.608 12.3137 22.572 12.2268C22.536 12.14 22.4833 12.0611 22.4168 11.9946Z" fill="white" stroke="white" stroke-width="0.445322"/>
<path d="M35.3953 10.8673L35.3953 10.8673L34.268 11.9946L34.268 11.9946C34.1337 12.1289 34.0583 12.311 34.0583 12.5008C34.0583 12.6907 34.1337 12.8728 34.268 13.007L34.4254 12.8496L34.268 13.007C34.4022 13.1412 34.5843 13.2167 34.7741 13.2167C34.964 13.2167 35.1461 13.1412 35.2803 13.007L36.4076 11.8797C36.5419 11.7454 36.6173 11.5633 36.6173 11.3735C36.6173 11.1836 36.5419 11.0016 36.4076 10.8673L36.2502 11.0248L36.4076 10.8673C36.2734 10.7331 36.0913 10.6577 35.9015 10.6576C35.7116 10.6576 35.5295 10.7331 35.3953 10.8673Z" fill="white" stroke="white" stroke-width="0.445322"/>
<path d="M22.4168 24.8582L22.4168 24.8582C22.2825 24.724 22.1004 24.6486 21.9106 24.6486C21.7208 24.6486 21.5387 24.724 21.4045 24.8582L21.4044 24.8582L20.2771 25.9855L20.2771 25.9855C20.1429 26.1197 20.0675 26.3018 20.0675 26.4917C20.0675 26.6815 20.1429 26.8636 20.2771 26.9979C20.4114 27.1321 20.5934 27.2075 20.7833 27.2075C20.9731 27.2075 21.1552 27.1321 21.2895 26.9979C21.2895 26.9979 21.2895 26.9979 21.2895 26.9979L22.4168 25.8706C22.4833 25.8041 22.536 25.7252 22.572 25.6384C22.608 25.5515 22.6265 25.4584 22.6265 25.3644C22.6265 25.2704 22.608 25.1773 22.572 25.0905C22.536 25.0036 22.4833 24.9247 22.4168 24.8582Z" fill="white" stroke="white" stroke-width="0.445322"/>
<path d="M40.3675 18.2168H37.4383C37.2484 18.2168 37.0664 18.2922 36.9321 18.4264C36.7979 18.5607 36.7225 18.7427 36.7225 18.9326C36.7225 19.1224 36.7979 19.3045 36.9321 19.4387C37.0664 19.573 37.2484 19.6484 37.4383 19.6484H40.3675C40.5573 19.6484 40.7394 19.573 40.8736 19.4387C41.0079 19.3045 41.0833 19.1224 41.0833 18.9326C41.0833 18.7427 41.0079 18.5607 40.8736 18.4264C40.7394 18.2922 40.5573 18.2168 40.3675 18.2168Z" fill="white" stroke="white" stroke-width="0.445322"/>
<path d="M19.2464 18.2168H16.3172C16.1274 18.2168 15.9453 18.2922 15.8111 18.4264C15.6768 18.5607 15.6014 18.7427 15.6014 18.9326C15.6014 19.1224 15.6768 19.3045 15.8111 19.4387C15.9453 19.573 16.1274 19.6484 16.3172 19.6484H19.2464C19.4362 19.6484 19.6183 19.573 19.7525 19.4387C19.8868 19.3045 19.9622 19.1224 19.9622 18.9326C19.9622 18.7427 19.8868 18.5607 19.7525 18.4264C19.6183 18.2922 19.4362 18.2168 19.2464 18.2168Z" fill="white" stroke="white" stroke-width="0.445322"/>
<path d="M27.6266 28.0285V30.9577C27.6266 31.1475 27.702 31.3296 27.8362 31.4638C27.9705 31.5981 28.1526 31.6735 28.3424 31.6735C28.5323 31.6735 28.7143 31.5981 28.8486 31.4638C28.9828 31.3296 29.0582 31.1475 29.0582 30.9577V28.0285C29.0582 27.8387 28.9828 27.6566 28.8486 27.5224C28.7143 27.3881 28.5323 27.3127 28.3424 27.3127C28.1526 27.3127 27.9705 27.3881 27.8362 27.5224C27.702 27.6566 27.6266 27.8387 27.6266 28.0285Z" fill="white" stroke="white" stroke-width="0.445322"/>
<path d="M28.3424 10.5525C28.5323 10.5525 28.7143 10.477 28.8486 10.3428C28.9828 10.2085 29.0582 10.0265 29.0582 9.83663V6.90744C29.0582 6.71759 28.9828 6.53552 28.8486 6.40127C28.7143 6.26703 28.5323 6.19161 28.3424 6.19161C28.1526 6.19161 27.9705 6.26703 27.8362 6.40127C27.702 6.53552 27.6266 6.71759 27.6266 6.90744V9.83657C27.6266 9.83657 27.6266 9.83658 27.6266 9.83659C27.6266 9.93059 27.6451 10.0237 27.6811 10.1105C27.717 10.1974 27.7697 10.2763 27.8362 10.3428C27.9027 10.4092 27.9816 10.462 28.0685 10.498C28.1553 10.5339 28.2484 10.5525 28.3424 10.5525Z" fill="white" stroke="white" stroke-width="0.445322"/>
</svg>
