<svg width="32" height="32" viewBox="0 0 32 32" fill="none" xmlns="http://www.w3.org/2000/svg">
<path d="M10.4 2.6665H21.6C25.8667 2.6665 29.3334 6.13317 29.3334 10.3998V21.5998C29.3334 23.6508 28.5186 25.6178 27.0683 27.0681C25.618 28.5184 23.651 29.3332 21.6 29.3332H10.4C6.13335 29.3332 2.66669 25.8665 2.66669 21.5998V10.3998C2.66669 8.34883 3.48145 6.38183 4.93173 4.93154C6.38201 3.48126 8.34901 2.6665 10.4 2.6665ZM10.1334 5.33317C8.86031 5.33317 7.63942 5.83888 6.73924 6.73906C5.83907 7.63923 5.33335 8.86013 5.33335 10.1332V21.8665C5.33335 24.5198 7.48002 26.6665 10.1334 26.6665H21.8667C23.1397 26.6665 24.3606 26.1608 25.2608 25.2606C26.161 24.3604 26.6667 23.1395 26.6667 21.8665V10.1332C26.6667 7.47984 24.52 5.33317 21.8667 5.33317H10.1334ZM23 7.33317C23.442 7.33317 23.866 7.50877 24.1785 7.82133C24.4911 8.13389 24.6667 8.55781 24.6667 8.99984C24.6667 9.44186 24.4911 9.86579 24.1785 10.1783C23.866 10.4909 23.442 10.6665 23 10.6665C22.558 10.6665 22.1341 10.4909 21.8215 10.1783C21.5089 9.86579 21.3334 9.44186 21.3334 8.99984C21.3334 8.55781 21.5089 8.13389 21.8215 7.82133C22.1341 7.50877 22.558 7.33317 23 7.33317ZM16 9.33317C17.7681 9.33317 19.4638 10.0355 20.7141 11.2858C21.9643 12.536 22.6667 14.2317 22.6667 15.9998C22.6667 17.7679 21.9643 19.4636 20.7141 20.7139C19.4638 21.9641 17.7681 22.6665 16 22.6665C14.2319 22.6665 12.5362 21.9641 11.286 20.7139C10.0357 19.4636 9.33335 17.7679 9.33335 15.9998C9.33335 14.2317 10.0357 12.536 11.286 11.2858C12.5362 10.0355 14.2319 9.33317 16 9.33317ZM16 11.9998C14.9392 11.9998 13.9217 12.4213 13.1716 13.1714C12.4214 13.9216 12 14.939 12 15.9998C12 17.0607 12.4214 18.0781 13.1716 18.8283C13.9217 19.5784 14.9392 19.9998 16 19.9998C17.0609 19.9998 18.0783 19.5784 18.8284 18.8283C19.5786 18.0781 20 17.0607 20 15.9998C20 14.939 19.5786 13.9216 18.8284 13.1714C18.0783 12.4213 17.0609 11.9998 16 11.9998Z" fill="white"/>
</svg>
