<svg width="32" height="32" viewBox="0 0 32 32" fill="none" xmlns="http://www.w3.org/2000/svg">
<path d="M29.3334 5.34668C28 6.00002 26.6934 6.26535 25.3334 6.66668C23.8387 4.98002 21.6227 4.88668 19.4934 5.68402C17.364 6.48135 15.9694 8.43068 16 10.6667V12C11.6734 12.1107 7.82002 10.14 5.33335 6.66668C5.33335 6.66668 -0.242646 16.5774 10.6667 21.3334C8.17069 22.996 5.68135 24.1174 2.66669 24C7.07735 26.404 11.884 27.2307 16.0454 26.0227C20.8187 24.636 24.7414 21.0587 26.2467 15.7C26.6957 14.0702 26.9187 12.3865 26.9094 10.696C26.9067 10.364 28.9227 7.00002 29.3334 5.34535V5.34668Z" stroke="white" stroke-width="2" stroke-linecap="round" stroke-linejoin="round"/>
</svg>
